<svg width="40" height="40" viewBox="0 0 40 40" fill="none" xmlns="http://www.w3.org/2000/svg">
<path d="M26.0166 9.18334L26.0166 26.1167C26.0166 26.7833 25.8166 27.4333 25.4499 27.9833L20.8999 34.75C20.1833 35.8333 18.3999 36.6 16.8833 36.0333C15.2499 35.4833 14.1666 33.65 14.5166 32.0167L15.3833 26.5667C15.4499 26.0667 15.3166 25.6167 15.0333 25.2667C14.7499 24.95 14.3333 24.75 13.8833 24.75L7.03327 24.75C5.7166 24.75 4.58327 24.2167 3.9166 23.2833C3.28327 22.3833 3.1666 21.2167 3.58327 20.0333L7.68327 7.55001C8.19994 5.48334 10.4499 3.80001 12.6833 3.80001L19.1833 3.80001C20.2999 3.80001 21.8666 4.18334 22.5833 4.90001L24.7166 6.55001C25.5333 7.16668 26.0166 8.15001 26.0166 9.18334Z" fill="#BE0403"/>
<path d="M31.318 29.3667L33.0346 29.3667C35.618 29.3667 36.668 28.3667 36.668 25.9L36.668 9.13332C36.668 6.66665 35.618 5.66665 33.0346 5.66665L31.318 5.66665C28.7346 5.66665 27.6846 6.66665 27.6846 9.13332L27.6846 25.9C27.6846 28.3667 28.7346 29.3667 31.318 29.3667Z" fill="#BE0403"/>
</svg>
