<svg width="40" height="40" viewBox="0 0 40 40" fill="none" xmlns="http://www.w3.org/2000/svg">
<path d="M13.9824 30.8167V13.8833C13.9824 13.2167 14.1824 12.5667 14.5491 12.0167L19.0991 5.24999C19.8158 4.16666 21.5991 3.39999 23.1158 3.96666C24.7491 4.51666 25.8324 6.34999 25.4824 7.98333L24.6158 13.4333C24.5491 13.9333 24.6824 14.3833 24.9658 14.7333C25.2491 15.05 25.6658 15.25 26.1158 15.25H32.9658C34.2824 15.25 35.4158 15.7833 36.0824 16.7167C36.7158 17.6167 36.8324 18.7833 36.4158 19.9667L32.3158 32.45C31.7991 34.5167 29.5491 36.2 27.3158 36.2H20.8158C19.6991 36.2 18.1324 35.8167 17.4158 35.1L15.2824 33.45C14.4658 32.8333 13.9824 31.85 13.9824 30.8167Z" fill="#28146A"/>
<path d="M8.68203 10.6333H6.96536C4.38203 10.6333 3.33203 11.6333 3.33203 14.1V30.8667C3.33203 33.3333 4.38203 34.3333 6.96536 34.3333H8.68203C11.2654 34.3333 12.3154 33.3333 12.3154 30.8667V14.1C12.3154 11.6333 11.2654 10.6333 8.68203 10.6333Z" fill="#28146A"/>
</svg>
