<svg width="260" height="104" viewBox="0 0 260 104" fill="none" xmlns="http://www.w3.org/2000/svg">
<path fill-rule="evenodd" clip-rule="evenodd" d="M36.3926 33.9657C41.1001 31.3448 46.8999 31.3448 51.6074 33.9657L56.3926 36.6297C61.1001 39.2506 64 44.0942 64 49.3359V54.6641C64 59.9058 61.1001 64.7494 56.3926 67.3703L51.6074 70.0343C46.8999 72.6552 41.1001 72.6552 36.3926 70.0343L31.6074 67.3703C26.8999 64.7494 24 59.9058 24 54.6641V49.3359C24 44.0942 26.8999 39.2506 31.6074 36.6297L36.3926 33.9657ZM43.81 40.8515C41.2468 40.7158 41.2467 40.717 41.2467 40.7181L41.2465 40.7205L41.2463 40.7257L41.2457 40.7377L41.2445 40.7675C41.2437 40.79 41.2428 40.8177 41.242 40.8503C41.2406 40.9157 41.2396 41.001 41.2407 41.1043C41.2427 41.3105 41.2526 41.5905 41.2819 41.9268C41.3401 42.5939 41.4775 43.5122 41.7998 44.5266C42.4485 46.5679 43.8982 49.1219 47.0163 50.6094C48.4827 51.309 49.1885 52.4785 49.5493 53.614C49.7317 54.188 49.8124 54.7214 49.8462 55.1089C49.8629 55.3 49.8675 55.4479 49.8684 55.538C49.8689 55.5828 49.8684 55.6126 49.8681 55.6254C49.8679 55.6317 49.8678 55.6338 49.8679 55.6314L49.8682 55.6242L49.8685 55.6181L49.8687 55.6143L49.8688 55.6122C49.8689 55.6112 49.8689 55.6101 52.4321 55.7457C54.9954 55.8814 54.9954 55.8802 54.9955 55.8791L54.9956 55.8767L54.9959 55.8715L54.9964 55.8595L54.9976 55.8297C54.9985 55.8072 54.9994 55.7795 55.0001 55.7468C55.0016 55.6815 55.0025 55.5962 55.0015 55.4929C54.9994 55.2867 54.9896 55.0066 54.9602 54.6704C54.902 54.0033 54.7646 53.085 54.4423 52.0706C53.7937 50.0293 52.344 47.4753 49.2258 45.9878C47.7595 45.2882 47.0537 44.1187 46.6929 42.9832C46.5105 42.4092 46.4297 41.8758 46.3959 41.4883C46.3792 41.2972 46.3746 41.1493 46.3737 41.0592C46.3733 41.0144 46.3738 40.9846 46.3741 40.9718L46.3742 40.9658L46.3739 40.9729L46.3736 40.9791L46.3734 40.9829L46.3733 40.985C46.3733 40.986 46.3732 40.9871 43.81 40.8515ZM35.4272 49.4506C32.864 49.315 32.8639 49.3161 32.8639 49.3172L32.8637 49.3196L32.8635 49.3249L32.8629 49.3368L32.8617 49.3666C32.8608 49.3891 32.86 49.4168 32.8592 49.4495C32.8578 49.5148 32.8568 49.6001 32.8579 49.7034C32.8599 49.9096 32.8698 50.1897 32.8991 50.5259C32.9573 51.193 33.0947 52.1113 33.417 53.1257C34.0656 55.167 35.5154 57.721 38.6335 59.2086C40.0999 59.9081 40.8057 61.0776 41.1665 62.2131C41.3488 62.7871 41.4296 63.3205 41.4634 63.708C41.4801 63.8991 41.4847 64.047 41.4856 64.1371C41.486 64.1819 41.4856 64.2117 41.4853 64.2245C41.4851 64.2309 41.485 64.233 41.4851 64.2305L41.4854 64.2234L41.4857 64.2172L41.4859 64.2134L41.486 64.2114C41.4861 64.2103 41.4861 64.2092 44.0493 64.3448C46.6126 64.4805 46.6126 64.4793 46.6127 64.4782L46.6128 64.4758L46.6131 64.4706L46.6136 64.4587L46.6148 64.4288C46.6157 64.4064 46.6166 64.3786 46.6173 64.346C46.6188 64.2807 46.6197 64.1953 46.6187 64.092C46.6166 63.8858 46.6067 63.6058 46.5774 63.2695C46.5192 62.6024 46.3818 61.6841 46.0595 60.6697C45.4109 58.6284 43.9611 56.0744 40.843 54.5869C39.3767 53.8873 38.6709 52.7178 38.3101 51.5823C38.1277 51.0083 38.0469 50.4749 38.0131 50.0874C37.9964 49.8963 37.9918 49.7484 37.9909 49.6583C37.9905 49.6135 37.991 49.5837 37.9913 49.5709L37.9914 49.5649L37.9911 49.5721L37.9908 49.5782L37.9906 49.582L37.9905 49.5841C37.9905 49.5851 37.9904 49.5862 35.4272 49.4506Z" fill="white"/>
<path d="M78.8291 45.5449L76.5703 56.1709H82.9863L82.4941 58.5H73.3711L76.1221 45.5449H78.8291ZM97.6143 46.6611C98.6689 47.8506 98.9443 49.6318 98.4404 52.0049C97.9424 54.3311 96.9082 56.1123 95.3379 57.3486C94.1484 58.3564 92.6279 58.8604 90.7764 58.8604C88.9248 58.8604 87.6152 58.3564 86.8477 57.3486C85.7988 56.1123 85.5234 54.3311 86.0215 52.0049C86.5254 49.6318 87.5596 47.8506 89.124 46.6611C90.3135 45.6533 91.834 45.1494 93.6855 45.1494C95.5371 45.1494 96.8467 45.6533 97.6143 46.6611ZM93.2021 47.4434C92.1299 47.4434 91.1895 47.8389 90.3809 48.6299C89.5781 49.4209 89.0215 50.5459 88.7109 52.0049C88.4004 53.4639 88.4795 54.5889 88.9482 55.3799C89.417 56.1709 90.1875 56.5664 91.2598 56.5664C92.332 56.5664 93.2666 56.1709 94.0635 55.3799C94.8662 54.5889 95.4229 53.4639 95.7334 52.0049C96.0381 50.5518 95.959 49.4297 95.4961 48.6387C95.0391 47.8418 94.2744 47.4434 93.2021 47.4434ZM106.916 53.71L107.382 51.5479H112.778L111.302 58.5H109.509L109.579 56.8828C108.923 57.498 108.36 57.9316 107.892 58.1836C107.083 58.623 106.157 58.8428 105.114 58.8428C103.397 58.8428 102.117 58.248 101.273 57.0586C100.389 55.8633 100.166 54.2285 100.605 52.1543C101.051 50.0566 101.985 48.375 103.409 47.1094C104.833 45.8438 106.494 45.2109 108.393 45.2109C110.039 45.2109 111.272 45.6299 112.093 46.4678C112.913 47.2998 113.265 48.3398 113.147 49.5879H110.484C110.467 48.7031 110.098 48.085 109.377 47.7334C108.973 47.54 108.498 47.4434 107.953 47.4434C106.91 47.4434 105.97 47.8389 105.132 48.6299C104.294 49.415 103.705 50.5986 103.365 52.1807C103.031 53.7744 103.154 54.9023 103.734 55.5645C104.32 56.2266 105.076 56.5576 106.002 56.5576C106.91 56.5576 107.71 56.2969 108.401 55.7754C109.099 55.248 109.603 54.5596 109.913 53.71H106.916ZM127.134 46.6611C128.188 47.8506 128.464 49.6318 127.96 52.0049C127.462 54.3311 126.428 56.1123 124.857 57.3486C123.668 58.3564 122.147 58.8604 120.296 58.8604C118.444 58.8604 117.135 58.3564 116.367 57.3486C115.318 56.1123 115.043 54.3311 115.541 52.0049C116.045 49.6318 117.079 47.8506 118.644 46.6611C119.833 45.6533 121.354 45.1494 123.205 45.1494C125.057 45.1494 126.366 45.6533 127.134 46.6611ZM122.722 47.4434C121.649 47.4434 120.709 47.8389 119.9 48.6299C119.098 49.4209 118.541 50.5459 118.23 52.0049C117.92 53.4639 117.999 54.5889 118.468 55.3799C118.937 56.1709 119.707 56.5664 120.779 56.5664C121.852 56.5664 122.786 56.1709 123.583 55.3799C124.386 54.5889 124.942 53.4639 125.253 52.0049C125.558 50.5518 125.479 49.4297 125.016 48.6387C124.559 47.8418 123.794 47.4434 122.722 47.4434Z" fill="white"/>
</svg>
