<svg width="700" height="572" viewBox="0 0 700 572" fill="none" xmlns="http://www.w3.org/2000/svg">
<rect x="10.603" y="28.8819" width="136" height="162.884" rx="30" fill="white"/>
<g filter="url(#filter0_di_241_943)">
<circle cx="78.603" cy="30.3233" r="26" fill="#0D0723"/>
<circle cx="78.603" cy="30.3233" r="23.5" stroke="#351A8D" stroke-width="5"/>
</g>
<path d="M78.103 21.5733C77.1085 21.5733 76.1546 21.9684 75.4514 22.6717C74.7481 23.3749 74.353 24.3287 74.353 25.3233C74.353 26.3179 74.7481 27.2717 75.4514 27.975C76.1546 28.6782 77.1085 29.0733 78.103 29.0733C79.0976 29.0733 80.0514 28.6782 80.7547 27.975C81.4579 27.2717 81.853 26.3179 81.853 25.3233C81.853 24.3287 81.4579 23.3749 80.7547 22.6717C80.0514 21.9684 79.0976 21.5733 78.103 21.5733ZM74.103 31.0733C73.1085 31.0733 72.1546 31.4684 71.4514 32.1717C70.7481 32.8749 70.353 33.8287 70.353 34.8233V36.0113C70.353 36.7653 70.899 37.4073 71.643 37.5283C75.921 38.2273 80.285 38.2273 84.563 37.5283C84.9231 37.4697 85.2506 37.2849 85.4869 37.007C85.7233 36.729 85.853 36.3761 85.853 36.0113V34.8233C85.853 33.8287 85.4579 32.8749 84.7547 32.1717C84.0514 31.4684 83.0976 31.0733 82.103 31.0733H81.763C81.578 31.0733 81.394 31.1033 81.219 31.1593L80.353 31.4423C78.891 31.9195 77.3151 31.9195 75.853 31.4423L74.987 31.1593C74.8117 31.1022 74.6284 31.0732 74.444 31.0733H74.103Z" fill="white"/>
<path d="M66.4155 82.1634C67.3687 82.1634 68.1239 81.8118 68.6812 81.1087C69.2437 80.4056 69.5249 79.4056 69.5249 78.1087C69.5249 76.817 69.2437 75.8196 68.6812 75.1165C68.1239 74.4082 67.3687 74.054 66.4155 74.054C65.4624 74.054 64.702 74.4056 64.1343 75.1087C63.5666 75.8118 63.2827 76.8118 63.2827 78.1087C63.2827 79.4056 63.5666 80.4056 64.1343 81.1087C64.702 81.8118 65.4624 82.1634 66.4155 82.1634ZM71.9312 78.1087C71.9312 80.1764 71.3504 81.7597 70.189 82.8587C69.3192 83.7545 68.0614 84.2025 66.4155 84.2025C64.7697 84.2025 63.5119 83.7545 62.6421 82.8587C61.4754 81.7597 60.8921 80.1764 60.8921 78.1087C60.8921 75.9993 61.4754 74.416 62.6421 73.3587C63.5119 72.4629 64.7697 72.015 66.4155 72.015C68.0614 72.015 69.3192 72.4629 70.189 73.3587C71.3504 74.416 71.9312 75.9993 71.9312 78.1087ZM78.8452 75.3665H81.2358L78.1655 83.8821H75.814L72.7593 75.3665H75.2593L77.0327 81.6478L78.8452 75.3665ZM85.8608 76.9759C85.3452 76.9759 84.9442 77.1373 84.6577 77.4603C84.3765 77.7832 84.1994 78.2207 84.1265 78.7728H87.5874C87.5509 78.1842 87.3713 77.7389 87.0483 77.4368C86.7306 77.1295 86.3348 76.9759 85.8608 76.9759ZM85.8608 75.14C86.5692 75.14 87.2072 75.2728 87.7749 75.5384C88.3426 75.804 88.8114 76.2233 89.1812 76.7962C89.5145 77.3014 89.7306 77.8873 89.8296 78.554C89.8869 78.9446 89.9103 79.5071 89.8999 80.2415H84.0718C84.103 81.0957 84.3713 81.6946 84.8765 82.0384C85.1838 82.2519 85.5535 82.3587 85.9858 82.3587C86.4442 82.3587 86.8166 82.2285 87.103 81.9681C87.2593 81.8275 87.3973 81.6321 87.5171 81.3821H89.7905C89.7332 81.8873 89.4702 82.4004 89.0015 82.9212C88.2723 83.7493 87.2515 84.1634 85.939 84.1634C84.8556 84.1634 83.8999 83.8144 83.0718 83.1165C82.2437 82.4186 81.8296 81.2832 81.8296 79.7103C81.8296 78.2363 82.202 77.1061 82.9468 76.3196C83.6968 75.5332 84.6681 75.14 85.8608 75.14ZM96.0327 75.1634C96.0744 75.1634 96.1082 75.166 96.1343 75.1712C96.1655 75.1712 96.2306 75.1738 96.3296 75.179V77.4603C96.189 77.4446 96.064 77.4342 95.9546 77.429C95.8452 77.4238 95.7567 77.4212 95.689 77.4212C94.7931 77.4212 94.1916 77.7129 93.8843 78.2962C93.7124 78.6243 93.6265 79.1295 93.6265 79.8118V83.8821H91.3843V75.3665H93.5093V76.8509C93.853 76.2832 94.1525 75.8952 94.4077 75.6868C94.8244 75.3379 95.366 75.1634 96.0327 75.1634Z" fill="#0D0723"/>
<path d="M28.4312 110.445V105.898C30.5405 105.804 32.0171 105.663 32.8608 105.476C34.2046 105.179 35.2983 104.585 36.1421 103.695C36.7202 103.085 37.1577 102.273 37.4546 101.257C37.6265 100.648 37.7124 100.195 37.7124 99.8978H43.2671V133.882H36.4233V110.445H28.4312ZM60.1421 117.218C60.1421 121.124 60.4624 124.117 61.103 126.195C61.7437 128.257 63.0562 129.288 65.0405 129.288C67.0249 129.288 68.3218 128.257 68.9312 126.195C69.5562 124.117 69.8687 121.124 69.8687 117.218C69.8687 113.124 69.5562 110.093 68.9312 108.124C68.3218 106.156 67.0249 105.171 65.0405 105.171C63.0562 105.171 61.7437 106.156 61.103 108.124C60.4624 110.093 60.1421 113.124 60.1421 117.218ZM65.0405 99.6634C69.3687 99.6634 72.3999 101.187 74.1343 104.234C75.8843 107.281 76.7593 111.609 76.7593 117.218C76.7593 122.827 75.8843 127.148 74.1343 130.179C72.3999 133.21 69.3687 134.726 65.0405 134.726C60.7124 134.726 57.6733 133.21 55.9233 130.179C54.189 127.148 53.3218 122.827 53.3218 117.218C53.3218 111.609 54.189 107.281 55.9233 104.234C57.6733 101.187 60.7124 99.6634 65.0405 99.6634ZM80.0405 133.882C80.103 131.445 80.6265 129.218 81.6108 127.202C82.564 124.937 84.814 122.538 88.3608 120.007C91.439 117.804 93.4312 116.226 94.3374 115.273C95.728 113.788 96.4233 112.163 96.4233 110.398C96.4233 108.96 96.0249 107.765 95.228 106.812C94.4312 105.859 93.2905 105.382 91.8062 105.382C89.7749 105.382 88.3921 106.14 87.6577 107.656C87.2358 108.531 86.9858 109.921 86.9077 111.827H80.4155C80.5249 108.937 81.0483 106.601 81.9858 104.82C83.7671 101.429 86.9312 99.7337 91.478 99.7337C95.0718 99.7337 97.9312 100.734 100.056 102.734C102.181 104.718 103.244 107.351 103.244 110.632C103.244 113.148 102.494 115.382 100.994 117.335C100.009 118.632 98.3921 120.077 96.1421 121.671L93.4702 123.57C91.7983 124.757 90.6499 125.617 90.0249 126.148C89.4155 126.679 88.8999 127.296 88.478 127.999H103.314V133.882H80.0405ZM113.087 123.452C113.087 124.812 113.306 125.937 113.744 126.827C114.556 128.468 116.033 129.288 118.173 129.288C119.486 129.288 120.626 128.843 121.595 127.952C122.58 127.046 123.072 125.749 123.072 124.062C123.072 121.827 122.166 120.335 120.353 119.585C119.322 119.163 117.697 118.952 115.478 118.952V114.171C117.65 114.14 119.166 113.929 120.025 113.538C121.509 112.882 122.251 111.554 122.251 109.554C122.251 108.257 121.869 107.202 121.103 106.39C120.353 105.577 119.291 105.171 117.916 105.171C116.337 105.171 115.173 105.671 114.423 106.671C113.689 107.671 113.337 109.007 113.369 110.679H107.134C107.197 108.992 107.486 107.39 108.001 105.874C108.548 104.546 109.408 103.32 110.58 102.195C111.455 101.398 112.494 100.788 113.697 100.367C114.9 99.9446 116.376 99.7337 118.126 99.7337C121.376 99.7337 123.994 100.577 125.978 102.265C127.978 103.937 128.978 106.187 128.978 109.015C128.978 111.015 128.384 112.702 127.197 114.077C126.447 114.937 125.666 115.523 124.853 115.835C125.462 115.835 126.337 116.359 127.478 117.406C129.181 118.984 130.033 121.14 130.033 123.874C130.033 126.749 129.033 129.281 127.033 131.468C125.048 133.64 122.103 134.726 118.197 134.726C113.384 134.726 110.041 133.156 108.166 130.015C107.181 128.343 106.634 126.156 106.525 123.452H113.087Z" fill="#4221B0"/>
<path d="M57.3218 149.367H59.7671V156.445C59.7671 157.236 59.8608 157.814 60.0483 158.179C60.34 158.825 60.9754 159.148 61.9546 159.148C62.9285 159.148 63.5614 158.825 63.853 158.179C64.0405 157.814 64.1343 157.236 64.1343 156.445V149.367H66.5796V156.445C66.5796 157.669 66.3895 158.622 66.0093 159.304C65.3009 160.554 63.9494 161.179 61.9546 161.179C59.9598 161.179 58.6056 160.554 57.8921 159.304C57.5119 158.622 57.3218 157.669 57.3218 156.445V149.367ZM70.439 158.163C70.4858 158.559 70.5874 158.84 70.7437 159.007C71.0197 159.304 71.5301 159.452 72.2749 159.452C72.7124 159.452 73.0588 159.387 73.314 159.257C73.5744 159.127 73.7046 158.932 73.7046 158.671C73.7046 158.421 73.6004 158.231 73.3921 158.101C73.1838 157.971 72.4103 157.747 71.0718 157.429C70.1082 157.189 69.4285 156.89 69.0327 156.531C68.6369 156.176 68.439 155.666 68.439 154.999C68.439 154.213 68.7463 153.538 69.3608 152.976C69.9806 152.408 70.8504 152.124 71.9702 152.124C73.0327 152.124 73.8973 152.338 74.564 152.765C75.2358 153.187 75.6213 153.919 75.7202 154.96H73.4937C73.4624 154.674 73.3817 154.447 73.2515 154.281C73.0067 153.978 72.59 153.827 72.0015 153.827C71.5171 153.827 71.1707 153.903 70.9624 154.054C70.7593 154.205 70.6577 154.382 70.6577 154.585C70.6577 154.84 70.7671 155.025 70.9858 155.14C71.2046 155.26 71.978 155.465 73.3062 155.757C74.1916 155.965 74.8556 156.281 75.2983 156.702C75.7358 157.13 75.9546 157.663 75.9546 158.304C75.9546 159.148 75.6395 159.838 75.0093 160.374C74.3843 160.906 73.4155 161.171 72.103 161.171C70.7645 161.171 69.7749 160.89 69.1343 160.327C68.4989 159.76 68.1812 159.038 68.1812 158.163H70.439ZM80.9702 153.976C80.4546 153.976 80.0535 154.137 79.7671 154.46C79.4858 154.783 79.3088 155.221 79.2358 155.773H82.6968C82.6603 155.184 82.4806 154.739 82.1577 154.437C81.84 154.13 81.4442 153.976 80.9702 153.976ZM80.9702 152.14C81.6785 152.14 82.3166 152.273 82.8843 152.538C83.452 152.804 83.9207 153.223 84.2905 153.796C84.6239 154.301 84.84 154.887 84.939 155.554C84.9963 155.945 85.0197 156.507 85.0093 157.242H79.1812C79.2124 158.096 79.4806 158.695 79.9858 159.038C80.2931 159.252 80.6629 159.359 81.0952 159.359C81.5535 159.359 81.9259 159.228 82.2124 158.968C82.3687 158.827 82.5067 158.632 82.6265 158.382H84.8999C84.8426 158.887 84.5796 159.4 84.1108 159.921C83.3817 160.749 82.3608 161.163 81.0483 161.163C79.965 161.163 79.0093 160.814 78.1812 160.117C77.353 159.419 76.939 158.283 76.939 156.71C76.939 155.236 77.3114 154.106 78.0562 153.32C78.8062 152.533 79.7775 152.14 80.9702 152.14ZM91.1421 152.163C91.1838 152.163 91.2176 152.166 91.2437 152.171C91.2749 152.171 91.34 152.174 91.439 152.179V154.46C91.2983 154.445 91.1733 154.434 91.064 154.429C90.9546 154.424 90.866 154.421 90.7983 154.421C89.9025 154.421 89.3009 154.713 88.9937 155.296C88.8218 155.624 88.7358 156.13 88.7358 156.812V160.882H86.4937V152.367H88.6187V153.851C88.9624 153.283 89.2619 152.895 89.5171 152.687C89.9338 152.338 90.4754 152.163 91.1421 152.163ZM94.4858 158.163C94.5327 158.559 94.6343 158.84 94.7905 159.007C95.0666 159.304 95.577 159.452 96.3218 159.452C96.7593 159.452 97.1056 159.387 97.3608 159.257C97.6213 159.127 97.7515 158.932 97.7515 158.671C97.7515 158.421 97.6473 158.231 97.439 158.101C97.2306 157.971 96.4572 157.747 95.1187 157.429C94.1551 157.189 93.4754 156.89 93.0796 156.531C92.6838 156.176 92.4858 155.666 92.4858 154.999C92.4858 154.213 92.7931 153.538 93.4077 152.976C94.0275 152.408 94.8973 152.124 96.0171 152.124C97.0796 152.124 97.9442 152.338 98.6108 152.765C99.2827 153.187 99.6681 153.919 99.7671 154.96H97.5405C97.5093 154.674 97.4285 154.447 97.2983 154.281C97.0535 153.978 96.6369 153.827 96.0483 153.827C95.564 153.827 95.2176 153.903 95.0093 154.054C94.8062 154.205 94.7046 154.382 94.7046 154.585C94.7046 154.84 94.814 155.025 95.0327 155.14C95.2515 155.26 96.0249 155.465 97.353 155.757C98.2384 155.965 98.9025 156.281 99.3452 156.702C99.7827 157.13 100.001 157.663 100.001 158.304C100.001 159.148 99.6864 159.838 99.0562 160.374C98.4312 160.906 97.4624 161.171 96.1499 161.171C94.8114 161.171 93.8218 160.89 93.1812 160.327C92.5457 159.76 92.228 159.038 92.228 158.163H94.4858Z" fill="#1A0D46"/>
<rect x="553.603" y="28.8819" width="136" height="162.884" rx="30" fill="white"/>
<g filter="url(#filter1_di_241_943)">
<circle cx="621.603" cy="30.3233" r="26" fill="#0D0723"/>
<circle cx="621.603" cy="30.3233" r="23.5" stroke="#351A8D" stroke-width="5"/>
</g>
<path d="M621.103 21.5733C620.108 21.5733 619.155 21.9684 618.451 22.6717C617.748 23.3749 617.353 24.3287 617.353 25.3233C617.353 26.3179 617.748 27.2717 618.451 27.975C619.155 28.6782 620.108 29.0733 621.103 29.0733C622.098 29.0733 623.051 28.6782 623.755 27.975C624.458 27.2717 624.853 26.3179 624.853 25.3233C624.853 24.3287 624.458 23.3749 623.755 22.6717C623.051 21.9684 622.098 21.5733 621.103 21.5733ZM617.103 31.0733C616.108 31.0733 615.155 31.4684 614.451 32.1717C613.748 32.8749 613.353 33.8287 613.353 34.8233V36.0113C613.353 36.7653 613.899 37.4073 614.643 37.5283C618.921 38.2273 623.285 38.2273 627.563 37.5283C627.923 37.4697 628.251 37.2849 628.487 37.007C628.723 36.729 628.853 36.3761 628.853 36.0113V34.8233C628.853 33.8287 628.458 32.8749 627.755 32.1717C627.051 31.4684 626.098 31.0733 625.103 31.0733H624.763C624.578 31.0733 624.394 31.1033 624.219 31.1593L623.353 31.4423C621.891 31.9195 620.315 31.9195 618.853 31.4423L617.987 31.1593C617.812 31.1022 617.628 31.0732 617.444 31.0733H617.103Z" fill="white"/>
<path d="M609.416 82.1634C610.369 82.1634 611.124 81.8118 611.681 81.1087C612.244 80.4056 612.525 79.4056 612.525 78.1087C612.525 76.817 612.244 75.8196 611.681 75.1165C611.124 74.4082 610.369 74.054 609.416 74.054C608.462 74.054 607.702 74.4056 607.134 75.1087C606.567 75.8118 606.283 76.8118 606.283 78.1087C606.283 79.4056 606.567 80.4056 607.134 81.1087C607.702 81.8118 608.462 82.1634 609.416 82.1634ZM614.931 78.1087C614.931 80.1764 614.35 81.7597 613.189 82.8587C612.319 83.7545 611.061 84.2025 609.416 84.2025C607.77 84.2025 606.512 83.7545 605.642 82.8587C604.475 81.7597 603.892 80.1764 603.892 78.1087C603.892 75.9993 604.475 74.416 605.642 73.3587C606.512 72.4629 607.77 72.015 609.416 72.015C611.061 72.015 612.319 72.4629 613.189 73.3587C614.35 74.416 614.931 75.9993 614.931 78.1087ZM621.845 75.3665H624.236L621.166 83.8821H618.814L615.759 75.3665H618.259L620.033 81.6478L621.845 75.3665ZM628.861 76.9759C628.345 76.9759 627.944 77.1373 627.658 77.4603C627.376 77.7832 627.199 78.2207 627.126 78.7728H630.587C630.551 78.1842 630.371 77.7389 630.048 77.4368C629.731 77.1295 629.335 76.9759 628.861 76.9759ZM628.861 75.14C629.569 75.14 630.207 75.2728 630.775 75.5384C631.343 75.804 631.811 76.2233 632.181 76.7962C632.514 77.3014 632.731 77.8873 632.83 78.554C632.887 78.9446 632.91 79.5071 632.9 80.2415H627.072C627.103 81.0957 627.371 81.6946 627.876 82.0384C628.184 82.2519 628.554 82.3587 628.986 82.3587C629.444 82.3587 629.817 82.2285 630.103 81.9681C630.259 81.8275 630.397 81.6321 630.517 81.3821H632.791C632.733 81.8873 632.47 82.4004 632.001 82.9212C631.272 83.7493 630.251 84.1634 628.939 84.1634C627.856 84.1634 626.9 83.8144 626.072 83.1165C625.244 82.4186 624.83 81.2832 624.83 79.7103C624.83 78.2363 625.202 77.1061 625.947 76.3196C626.697 75.5332 627.668 75.14 628.861 75.14ZM639.033 75.1634C639.074 75.1634 639.108 75.166 639.134 75.1712C639.166 75.1712 639.231 75.1738 639.33 75.179V77.4603C639.189 77.4446 639.064 77.4342 638.955 77.429C638.845 77.4238 638.757 77.4212 638.689 77.4212C637.793 77.4212 637.192 77.7129 636.884 78.2962C636.712 78.6243 636.626 79.1295 636.626 79.8118V83.8821H634.384V75.3665H636.509V76.8509C636.853 76.2832 637.153 75.8952 637.408 75.6868C637.824 75.3379 638.366 75.1634 639.033 75.1634Z" fill="#0D0723"/>
<path d="M571.431 110.445V105.898C573.541 105.804 575.017 105.663 575.861 105.476C577.205 105.179 578.298 104.585 579.142 103.695C579.72 103.085 580.158 102.273 580.455 101.257C580.626 100.648 580.712 100.195 580.712 99.8978H586.267V133.882H579.423V110.445H571.431ZM603.142 117.218C603.142 121.124 603.462 124.117 604.103 126.195C604.744 128.257 606.056 129.288 608.041 129.288C610.025 129.288 611.322 128.257 611.931 126.195C612.556 124.117 612.869 121.124 612.869 117.218C612.869 113.124 612.556 110.093 611.931 108.124C611.322 106.156 610.025 105.171 608.041 105.171C606.056 105.171 604.744 106.156 604.103 108.124C603.462 110.093 603.142 113.124 603.142 117.218ZM608.041 99.6634C612.369 99.6634 615.4 101.187 617.134 104.234C618.884 107.281 619.759 111.609 619.759 117.218C619.759 122.827 618.884 127.148 617.134 130.179C615.4 133.21 612.369 134.726 608.041 134.726C603.712 134.726 600.673 133.21 598.923 130.179C597.189 127.148 596.322 122.827 596.322 117.218C596.322 111.609 597.189 107.281 598.923 104.234C600.673 101.187 603.712 99.6634 608.041 99.6634ZM623.041 133.882C623.103 131.445 623.626 129.218 624.611 127.202C625.564 124.937 627.814 122.538 631.361 120.007C634.439 117.804 636.431 116.226 637.337 115.273C638.728 113.788 639.423 112.163 639.423 110.398C639.423 108.96 639.025 107.765 638.228 106.812C637.431 105.859 636.291 105.382 634.806 105.382C632.775 105.382 631.392 106.14 630.658 107.656C630.236 108.531 629.986 109.921 629.908 111.827H623.416C623.525 108.937 624.048 106.601 624.986 104.82C626.767 101.429 629.931 99.7337 634.478 99.7337C638.072 99.7337 640.931 100.734 643.056 102.734C645.181 104.718 646.244 107.351 646.244 110.632C646.244 113.148 645.494 115.382 643.994 117.335C643.009 118.632 641.392 120.077 639.142 121.671L636.47 123.57C634.798 124.757 633.65 125.617 633.025 126.148C632.416 126.679 631.9 127.296 631.478 127.999H646.314V133.882H623.041ZM656.087 123.452C656.087 124.812 656.306 125.937 656.744 126.827C657.556 128.468 659.033 129.288 661.173 129.288C662.486 129.288 663.626 128.843 664.595 127.952C665.58 127.046 666.072 125.749 666.072 124.062C666.072 121.827 665.166 120.335 663.353 119.585C662.322 119.163 660.697 118.952 658.478 118.952V114.171C660.65 114.14 662.166 113.929 663.025 113.538C664.509 112.882 665.251 111.554 665.251 109.554C665.251 108.257 664.869 107.202 664.103 106.39C663.353 105.577 662.291 105.171 660.916 105.171C659.337 105.171 658.173 105.671 657.423 106.671C656.689 107.671 656.337 109.007 656.369 110.679H650.134C650.197 108.992 650.486 107.39 651.001 105.874C651.548 104.546 652.408 103.32 653.58 102.195C654.455 101.398 655.494 100.788 656.697 100.367C657.9 99.9446 659.376 99.7337 661.126 99.7337C664.376 99.7337 666.994 100.577 668.978 102.265C670.978 103.937 671.978 106.187 671.978 109.015C671.978 111.015 671.384 112.702 670.197 114.077C669.447 114.937 668.666 115.523 667.853 115.835C668.462 115.835 669.337 116.359 670.478 117.406C672.181 118.984 673.033 121.14 673.033 123.874C673.033 126.749 672.033 129.281 670.033 131.468C668.048 133.64 665.103 134.726 661.197 134.726C656.384 134.726 653.041 133.156 651.166 130.015C650.181 128.343 649.634 126.156 649.525 123.452H656.087Z" fill="#4221B0"/>
<path d="M600.322 149.367H602.767V156.445C602.767 157.236 602.861 157.814 603.048 158.179C603.34 158.825 603.975 159.148 604.955 159.148C605.929 159.148 606.561 158.825 606.853 158.179C607.041 157.814 607.134 157.236 607.134 156.445V149.367H609.58V156.445C609.58 157.669 609.389 158.622 609.009 159.304C608.301 160.554 606.949 161.179 604.955 161.179C602.96 161.179 601.606 160.554 600.892 159.304C600.512 158.622 600.322 157.669 600.322 156.445V149.367ZM613.439 158.163C613.486 158.559 613.587 158.84 613.744 159.007C614.02 159.304 614.53 159.452 615.275 159.452C615.712 159.452 616.059 159.387 616.314 159.257C616.574 159.127 616.705 158.932 616.705 158.671C616.705 158.421 616.6 158.231 616.392 158.101C616.184 157.971 615.41 157.747 614.072 157.429C613.108 157.189 612.429 156.89 612.033 156.531C611.637 156.176 611.439 155.666 611.439 154.999C611.439 154.213 611.746 153.538 612.361 152.976C612.981 152.408 613.85 152.124 614.97 152.124C616.033 152.124 616.897 152.338 617.564 152.765C618.236 153.187 618.621 153.919 618.72 154.96H616.494C616.462 154.674 616.382 154.447 616.251 154.281C616.007 153.978 615.59 153.827 615.001 153.827C614.517 153.827 614.171 153.903 613.962 154.054C613.759 154.205 613.658 154.382 613.658 154.585C613.658 154.84 613.767 155.025 613.986 155.14C614.205 155.26 614.978 155.465 616.306 155.757C617.192 155.965 617.856 156.281 618.298 156.702C618.736 157.13 618.955 157.663 618.955 158.304C618.955 159.148 618.639 159.838 618.009 160.374C617.384 160.906 616.416 161.171 615.103 161.171C613.764 161.171 612.775 160.89 612.134 160.327C611.499 159.76 611.181 159.038 611.181 158.163H613.439ZM623.97 153.976C623.455 153.976 623.054 154.137 622.767 154.46C622.486 154.783 622.309 155.221 622.236 155.773H625.697C625.66 155.184 625.481 154.739 625.158 154.437C624.84 154.13 624.444 153.976 623.97 153.976ZM623.97 152.14C624.679 152.14 625.317 152.273 625.884 152.538C626.452 152.804 626.921 153.223 627.291 153.796C627.624 154.301 627.84 154.887 627.939 155.554C627.996 155.945 628.02 156.507 628.009 157.242H622.181C622.212 158.096 622.481 158.695 622.986 159.038C623.293 159.252 623.663 159.359 624.095 159.359C624.554 159.359 624.926 159.228 625.212 158.968C625.369 158.827 625.507 158.632 625.626 158.382H627.9C627.843 158.887 627.58 159.4 627.111 159.921C626.382 160.749 625.361 161.163 624.048 161.163C622.965 161.163 622.009 160.814 621.181 160.117C620.353 159.419 619.939 158.283 619.939 156.71C619.939 155.236 620.311 154.106 621.056 153.32C621.806 152.533 622.778 152.14 623.97 152.14ZM634.142 152.163C634.184 152.163 634.218 152.166 634.244 152.171C634.275 152.171 634.34 152.174 634.439 152.179V154.46C634.298 154.445 634.173 154.434 634.064 154.429C633.955 154.424 633.866 154.421 633.798 154.421C632.903 154.421 632.301 154.713 631.994 155.296C631.822 155.624 631.736 156.13 631.736 156.812V160.882H629.494V152.367H631.619V153.851C631.962 153.283 632.262 152.895 632.517 152.687C632.934 152.338 633.475 152.163 634.142 152.163ZM637.486 158.163C637.533 158.559 637.634 158.84 637.791 159.007C638.067 159.304 638.577 159.452 639.322 159.452C639.759 159.452 640.106 159.387 640.361 159.257C640.621 159.127 640.751 158.932 640.751 158.671C640.751 158.421 640.647 158.231 640.439 158.101C640.231 157.971 639.457 157.747 638.119 157.429C637.155 157.189 636.475 156.89 636.08 156.531C635.684 156.176 635.486 155.666 635.486 154.999C635.486 154.213 635.793 153.538 636.408 152.976C637.028 152.408 637.897 152.124 639.017 152.124C640.08 152.124 640.944 152.338 641.611 152.765C642.283 153.187 642.668 153.919 642.767 154.96H640.541C640.509 154.674 640.429 154.447 640.298 154.281C640.054 153.978 639.637 153.827 639.048 153.827C638.564 153.827 638.218 153.903 638.009 154.054C637.806 154.205 637.705 154.382 637.705 154.585C637.705 154.84 637.814 155.025 638.033 155.14C638.251 155.26 639.025 155.465 640.353 155.757C641.238 155.965 641.903 156.281 642.345 156.702C642.783 157.13 643.001 157.663 643.001 158.304C643.001 159.148 642.686 159.838 642.056 160.374C641.431 160.906 640.462 161.171 639.15 161.171C637.811 161.171 636.822 160.89 636.181 160.327C635.546 159.76 635.228 159.038 635.228 158.163H637.486Z" fill="#1A0D46"/>
<rect x="0.206055" y="429.44" width="118" height="141.326" rx="30" fill="white"/>
<g filter="url(#filter2_di_241_943)">
<circle cx="59.206" cy="430.691" r="22.5588" fill="#0D0723"/>
<circle cx="59.206" cy="430.691" r="20.0588" stroke="#351A8D" stroke-width="5"/>
</g>
<path d="M68.2061 435.382V428.482L59.2061 433.382L48.2061 427.382L59.2061 421.382L70.2061 427.382V435.382H68.2061ZM59.2061 439.382L52.2061 435.582V430.582L59.2061 434.382L66.2061 430.582V435.582L59.2061 439.382Z" fill="white"/>
<path d="M46.1465 466.806L47.4795 472.576L47.7666 474.182L48.0605 472.61L49.1953 466.806H51.417L52.6133 472.576L52.9209 474.182L53.2285 472.637L54.5752 466.806H56.7148L53.8779 476.883H51.8682L50.6514 470.99L50.2959 469.042L49.9404 470.99L48.7236 476.883H46.7686L43.9111 466.806H46.1465ZM59.7158 468.543H57.7402V466.745H59.7158V468.543ZM57.7402 469.431H59.7158V476.883H57.7402V469.431ZM60.8438 470.887V469.5H61.8828V467.422H63.8105V469.5H65.0205V470.887H63.8105V474.825C63.8105 475.13 63.8493 475.322 63.9268 475.399C64.0042 475.472 64.2412 475.509 64.6377 475.509C64.6969 475.509 64.7585 475.509 64.8223 475.509C64.8906 475.504 64.9567 475.499 65.0205 475.495V476.951L64.0977 476.985C63.1771 477.017 62.5482 476.858 62.2109 476.507C61.9922 476.283 61.8828 475.939 61.8828 475.474V470.887H60.8438ZM70.3799 469.24C70.8402 469.24 71.2572 469.32 71.6309 469.479C72.0091 469.639 72.319 469.883 72.5605 470.211C72.7656 470.489 72.891 470.776 72.9365 471.072C72.9821 471.364 73.0049 471.842 73.0049 472.508V476.883H71.0156V472.35C71.0156 471.949 70.9473 471.626 70.8105 471.38C70.6328 471.033 70.2956 470.86 69.7988 470.86C69.2839 470.86 68.8919 471.033 68.623 471.38C68.3587 471.721 68.2266 472.211 68.2266 472.849V476.883H66.2852V466.841H68.2266V470.402C68.5091 469.969 68.835 469.668 69.2041 469.5C69.5778 469.327 69.9697 469.24 70.3799 469.24Z" fill="#0D0723"/>
<path d="M20.2061 526.883C20.2686 524.445 20.792 522.219 21.7764 520.203C22.7295 517.937 24.9795 515.539 28.5264 513.008C31.6045 510.804 33.5967 509.226 34.5029 508.273C35.8936 506.789 36.5889 505.164 36.5889 503.398C36.5889 501.961 36.1904 500.765 35.3936 499.812C34.5967 498.859 33.4561 498.383 31.9717 498.383C29.9404 498.383 28.5576 499.14 27.8232 500.656C27.4014 501.531 27.1514 502.922 27.0732 504.828H20.5811C20.6904 501.937 21.2139 499.601 22.1514 497.82C23.9326 494.429 27.0967 492.734 31.6436 492.734C35.2373 492.734 38.0967 493.734 40.2217 495.734C42.3467 497.719 43.4092 500.351 43.4092 503.633C43.4092 506.148 42.6592 508.383 41.1592 510.336C40.1748 511.633 38.5576 513.078 36.3076 514.672L33.6357 516.57C31.9639 517.758 30.8154 518.617 30.1904 519.148C29.5811 519.679 29.0654 520.297 28.6436 521H43.4795V526.883H20.2061ZM53.7451 510.219C53.7451 514.125 54.0654 517.117 54.7061 519.195C55.3467 521.258 56.6592 522.289 58.6436 522.289C60.6279 522.289 61.9248 521.258 62.5342 519.195C63.1592 517.117 63.4717 514.125 63.4717 510.219C63.4717 506.125 63.1592 503.094 62.5342 501.125C61.9248 499.156 60.6279 498.172 58.6436 498.172C56.6592 498.172 55.3467 499.156 54.7061 501.125C54.0654 503.094 53.7451 506.125 53.7451 510.219ZM58.6436 492.664C62.9717 492.664 66.0029 494.187 67.7373 497.234C69.4873 500.281 70.3623 504.609 70.3623 510.219C70.3623 515.828 69.4873 520.148 67.7373 523.179C66.0029 526.211 62.9717 527.726 58.6436 527.726C54.3154 527.726 51.2764 526.211 49.5264 523.179C47.792 520.148 46.9248 515.828 46.9248 510.219C46.9248 504.609 47.792 500.281 49.5264 497.234C51.2764 494.187 54.3154 492.664 58.6436 492.664ZM73.5732 504.851C73.5732 501.211 74.6201 498.265 76.7139 496.015C78.8232 493.75 81.5576 492.617 84.917 492.617C90.0889 492.617 93.6357 494.906 95.5576 499.484C96.6514 502.078 97.1982 505.492 97.1982 509.726C97.1982 513.836 96.6748 517.265 95.6279 520.015C93.6279 525.25 89.9561 527.867 84.6123 527.867C82.0654 527.867 79.7764 527.117 77.7451 525.617C75.7139 524.101 74.5498 521.898 74.2529 519.008H80.9092C81.0654 520.008 81.4873 520.82 82.1748 521.445C82.8623 522.07 83.7764 522.383 84.917 522.383C87.1201 522.383 88.667 521.164 89.5576 518.726C90.042 517.383 90.3467 515.422 90.4717 512.844C89.8623 513.609 89.2139 514.195 88.5264 514.601C87.2764 515.351 85.7373 515.726 83.9092 515.726C81.2061 515.726 78.8076 514.797 76.7139 512.937C74.6201 511.062 73.5732 508.367 73.5732 504.851ZM85.3623 510.289C86.2842 510.289 87.1514 510.023 87.9639 509.492C89.4795 508.523 90.2373 506.844 90.2373 504.453C90.2373 502.531 89.7842 501.008 88.8779 499.883C87.9873 498.758 86.7607 498.195 85.1982 498.195C84.0576 498.195 83.0811 498.515 82.2686 499.156C80.9873 500.156 80.3467 501.851 80.3467 504.242C80.3467 506.258 80.7529 507.773 81.5654 508.789C82.3936 509.789 83.6592 510.289 85.3623 510.289Z" fill="#4221B0"/>
<path d="M34.2969 548.772C34.3607 549.233 34.486 549.577 34.6729 549.804C35.0146 550.219 35.6003 550.427 36.4297 550.427C36.9264 550.427 37.3298 550.372 37.6396 550.262C38.2275 550.053 38.5215 549.663 38.5215 549.094C38.5215 548.761 38.3757 548.503 38.084 548.321C37.7923 548.143 37.3343 547.986 36.71 547.849L35.6436 547.61C34.5954 547.373 33.8708 547.116 33.4697 546.838C32.7907 546.373 32.4512 545.646 32.4512 544.657C32.4512 543.755 32.7793 543.005 33.4355 542.408C34.0918 541.811 35.0557 541.512 36.3271 541.512C37.389 541.512 38.2936 541.795 39.041 542.36C39.793 542.921 40.1872 543.736 40.2236 544.807H38.2002C38.1637 544.201 37.8994 543.771 37.4072 543.515C37.0791 543.347 36.6712 543.262 36.1836 543.262C35.6413 543.262 35.2083 543.372 34.8848 543.591C34.5612 543.809 34.3994 544.115 34.3994 544.507C34.3994 544.867 34.5589 545.135 34.8779 545.313C35.083 545.432 35.5205 545.571 36.1904 545.73L37.9268 546.147C38.6878 546.33 39.262 546.573 39.6494 546.879C40.251 547.353 40.5518 548.038 40.5518 548.936C40.5518 549.857 40.1986 550.622 39.4922 551.233C38.7904 551.839 37.7969 552.142 36.5117 552.142C35.1992 552.142 34.167 551.844 33.415 551.247C32.6631 550.645 32.2871 549.82 32.2871 548.772H34.2969ZM46.4033 547.104C46.3669 546.826 46.2734 546.576 46.123 546.352C45.9043 546.052 45.5648 545.901 45.1045 545.901C44.4482 545.901 43.9993 546.227 43.7578 546.879C43.6302 547.225 43.5664 547.685 43.5664 548.26C43.5664 548.806 43.6302 549.246 43.7578 549.579C43.9902 550.199 44.4277 550.509 45.0703 550.509C45.526 550.509 45.8496 550.385 46.041 550.139C46.2324 549.893 46.3486 549.574 46.3896 549.182H48.3789C48.3333 549.775 48.1191 550.335 47.7363 550.864C47.1257 551.716 46.221 552.142 45.0225 552.142C43.8239 552.142 42.9421 551.787 42.377 551.076C41.8118 550.365 41.5293 549.442 41.5293 548.307C41.5293 547.027 41.8415 546.031 42.4658 545.32C43.0902 544.609 43.9515 544.254 45.0498 544.254C45.984 544.254 46.7474 544.463 47.3398 544.883C47.9368 545.302 48.29 546.042 48.3994 547.104H46.4033ZM53.8545 544.24C54.3148 544.24 54.7318 544.32 55.1055 544.479C55.4837 544.639 55.7936 544.883 56.0352 545.211C56.2402 545.489 56.3656 545.776 56.4111 546.072C56.4567 546.364 56.4795 546.842 56.4795 547.508V551.883H54.4902V547.35C54.4902 546.949 54.4219 546.626 54.2852 546.38C54.1074 546.033 53.7702 545.86 53.2734 545.86C52.7585 545.86 52.3665 546.033 52.0977 546.38C51.8333 546.721 51.7012 547.211 51.7012 547.849V551.883H49.7598V541.841H51.7012V545.402C51.9837 544.969 52.3096 544.668 52.6787 544.5C53.0524 544.327 53.4443 544.24 53.8545 544.24ZM61.6475 550.509C62.2171 550.509 62.6546 550.306 62.96 549.9C63.2653 549.495 63.418 548.918 63.418 548.171C63.418 547.423 63.2653 546.849 62.96 546.448C62.6546 546.042 62.2171 545.84 61.6475 545.84C61.0778 545.84 60.638 546.042 60.3281 546.448C60.0228 546.849 59.8701 547.423 59.8701 548.171C59.8701 548.918 60.0228 549.495 60.3281 549.9C60.638 550.306 61.0778 550.509 61.6475 550.509ZM65.4619 548.171C65.4619 549.264 65.1475 550.201 64.5186 550.98C63.8896 551.755 62.9349 552.142 61.6543 552.142C60.3737 552.142 59.4189 551.755 58.79 550.98C58.1611 550.201 57.8467 549.264 57.8467 548.171C57.8467 547.095 58.1611 546.163 58.79 545.375C59.4189 544.586 60.3737 544.192 61.6543 544.192C62.9349 544.192 63.8896 544.586 64.5186 545.375C65.1475 546.163 65.4619 547.095 65.4619 548.171ZM70.2061 550.509C70.7757 550.509 71.2132 550.306 71.5186 549.9C71.8239 549.495 71.9766 548.918 71.9766 548.171C71.9766 547.423 71.8239 546.849 71.5186 546.448C71.2132 546.042 70.7757 545.84 70.2061 545.84C69.6364 545.84 69.1966 546.042 68.8867 546.448C68.5814 546.849 68.4287 547.423 68.4287 548.171C68.4287 548.918 68.5814 549.495 68.8867 549.9C69.1966 550.306 69.6364 550.509 70.2061 550.509ZM74.0205 548.171C74.0205 549.264 73.7061 550.201 73.0771 550.98C72.4482 551.755 71.4935 552.142 70.2129 552.142C68.9323 552.142 67.9775 551.755 67.3486 550.98C66.7197 550.201 66.4053 549.264 66.4053 548.171C66.4053 547.095 66.7197 546.163 67.3486 545.375C67.9775 544.586 68.9323 544.192 70.2129 544.192C71.4935 544.192 72.4482 544.586 73.0771 545.375C73.7061 546.163 74.0205 547.095 74.0205 548.171ZM77.4111 551.883H75.4629V541.806H77.4111V551.883ZM80.8359 549.504C80.877 549.85 80.9658 550.096 81.1025 550.242C81.3441 550.502 81.7907 550.632 82.4424 550.632C82.8252 550.632 83.1283 550.575 83.3516 550.461C83.5794 550.347 83.6934 550.176 83.6934 549.948C83.6934 549.729 83.6022 549.563 83.4199 549.449C83.2376 549.335 82.5609 549.139 81.3896 548.861C80.5465 548.651 79.9518 548.389 79.6055 548.075C79.2591 547.765 79.0859 547.318 79.0859 546.735C79.0859 546.047 79.3548 545.457 79.8926 544.965C80.4349 544.468 81.196 544.219 82.1758 544.219C83.1055 544.219 83.862 544.406 84.4453 544.78C85.0332 545.149 85.3704 545.789 85.457 546.701H83.5088C83.4814 546.45 83.4108 546.252 83.2969 546.106C83.0827 545.842 82.7181 545.71 82.2031 545.71C81.7793 545.71 81.4762 545.776 81.2939 545.908C81.1162 546.04 81.0273 546.195 81.0273 546.373C81.0273 546.596 81.123 546.758 81.3145 546.858C81.5059 546.963 82.1826 547.143 83.3447 547.398C84.1195 547.58 84.7005 547.856 85.0879 548.225C85.4707 548.599 85.6621 549.066 85.6621 549.627C85.6621 550.365 85.3864 550.969 84.835 551.438C84.2881 551.903 83.4404 552.135 82.292 552.135C81.1208 552.135 80.2549 551.889 79.6943 551.397C79.1383 550.9 78.8604 550.269 78.8604 549.504H80.8359Z" fill="#1A0D46"/>
<rect x="581.206" y="429.44" width="118" height="141.326" rx="30" fill="white"/>
<g filter="url(#filter3_di_241_943)">
<circle cx="640.206" cy="430.691" r="22.5588" fill="#0D0723"/>
<circle cx="640.206" cy="430.691" r="20.0588" stroke="#351A8D" stroke-width="5"/>
</g>
<path d="M640.206 422.132C639.211 422.132 638.258 422.527 637.554 423.231C636.851 423.934 636.456 424.888 636.456 425.882C636.456 426.877 636.851 427.831 637.554 428.534C638.258 429.237 639.211 429.632 640.206 429.632C641.201 429.632 642.154 429.237 642.858 428.534C643.561 427.831 643.956 426.877 643.956 425.882C643.956 424.888 643.561 423.934 642.858 423.231C642.154 422.527 641.201 422.132 640.206 422.132ZM636.206 431.632C635.211 431.632 634.258 432.027 633.554 432.731C632.851 433.434 632.456 434.388 632.456 435.382V436.57C632.456 437.324 633.002 437.966 633.746 438.087C638.024 438.786 642.388 438.786 646.666 438.087C647.026 438.029 647.354 437.844 647.59 437.566C647.826 437.288 647.956 436.935 647.956 436.57V435.382C647.956 434.388 647.561 433.434 646.858 432.731C646.154 432.027 645.201 431.632 644.206 431.632H643.866C643.681 431.632 643.497 431.662 643.322 431.718L642.456 432.001C640.994 432.479 639.418 432.479 637.956 432.001L637.09 431.718C636.915 431.661 636.731 431.632 636.547 431.632H636.206Z" fill="white"/>
<path d="M627.146 466.806L628.479 472.576L628.767 474.182L629.061 472.61L630.195 466.806H632.417L633.613 472.576L633.921 474.182L634.229 472.637L635.575 466.806H637.715L634.878 476.883H632.868L631.651 470.99L631.296 469.042L630.94 470.99L629.724 476.883H627.769L624.911 466.806H627.146ZM640.716 468.543H638.74V466.745H640.716V468.543ZM638.74 469.431H640.716V476.883H638.74V469.431ZM641.844 470.887V469.5H642.883V467.422H644.811V469.5H646.021V470.887H644.811V474.825C644.811 475.13 644.849 475.322 644.927 475.399C645.004 475.472 645.241 475.509 645.638 475.509C645.697 475.509 645.758 475.509 645.822 475.509C645.891 475.504 645.957 475.499 646.021 475.495V476.951L645.098 476.985C644.177 477.017 643.548 476.858 643.211 476.507C642.992 476.283 642.883 475.939 642.883 475.474V470.887H641.844ZM651.38 469.24C651.84 469.24 652.257 469.32 652.631 469.479C653.009 469.639 653.319 469.883 653.561 470.211C653.766 470.489 653.891 470.776 653.937 471.072C653.982 471.364 654.005 471.842 654.005 472.508V476.883H652.016V472.35C652.016 471.949 651.947 471.626 651.811 471.38C651.633 471.033 651.296 470.86 650.799 470.86C650.284 470.86 649.892 471.033 649.623 471.38C649.359 471.721 649.227 472.211 649.227 472.849V476.883H647.285V466.841H649.227V470.402C649.509 469.969 649.835 469.668 650.204 469.5C650.578 469.327 650.97 469.24 651.38 469.24Z" fill="#0D0723"/>
<path d="M601.206 526.883C601.269 524.445 601.792 522.219 602.776 520.203C603.729 517.937 605.979 515.539 609.526 513.008C612.604 510.804 614.597 509.226 615.503 508.273C616.894 506.789 617.589 505.164 617.589 503.398C617.589 501.961 617.19 500.765 616.394 499.812C615.597 498.859 614.456 498.383 612.972 498.383C610.94 498.383 609.558 499.14 608.823 500.656C608.401 501.531 608.151 502.922 608.073 504.828H601.581C601.69 501.937 602.214 499.601 603.151 497.82C604.933 494.429 608.097 492.734 612.644 492.734C616.237 492.734 619.097 493.734 621.222 495.734C623.347 497.719 624.409 500.351 624.409 503.633C624.409 506.148 623.659 508.383 622.159 510.336C621.175 511.633 619.558 513.078 617.308 514.672L614.636 516.57C612.964 517.758 611.815 518.617 611.19 519.148C610.581 519.679 610.065 520.297 609.644 521H624.479V526.883H601.206ZM634.745 510.219C634.745 514.125 635.065 517.117 635.706 519.195C636.347 521.258 637.659 522.289 639.644 522.289C641.628 522.289 642.925 521.258 643.534 519.195C644.159 517.117 644.472 514.125 644.472 510.219C644.472 506.125 644.159 503.094 643.534 501.125C642.925 499.156 641.628 498.172 639.644 498.172C637.659 498.172 636.347 499.156 635.706 501.125C635.065 503.094 634.745 506.125 634.745 510.219ZM639.644 492.664C643.972 492.664 647.003 494.187 648.737 497.234C650.487 500.281 651.362 504.609 651.362 510.219C651.362 515.828 650.487 520.148 648.737 523.179C647.003 526.211 643.972 527.726 639.644 527.726C635.315 527.726 632.276 526.211 630.526 523.179C628.792 520.148 627.925 515.828 627.925 510.219C627.925 504.609 628.792 500.281 630.526 497.234C632.276 494.187 635.315 492.664 639.644 492.664ZM654.573 504.851C654.573 501.211 655.62 498.265 657.714 496.015C659.823 493.75 662.558 492.617 665.917 492.617C671.089 492.617 674.636 494.906 676.558 499.484C677.651 502.078 678.198 505.492 678.198 509.726C678.198 513.836 677.675 517.265 676.628 520.015C674.628 525.25 670.956 527.867 665.612 527.867C663.065 527.867 660.776 527.117 658.745 525.617C656.714 524.101 655.55 521.898 655.253 519.008H661.909C662.065 520.008 662.487 520.82 663.175 521.445C663.862 522.07 664.776 522.383 665.917 522.383C668.12 522.383 669.667 521.164 670.558 518.726C671.042 517.383 671.347 515.422 671.472 512.844C670.862 513.609 670.214 514.195 669.526 514.601C668.276 515.351 666.737 515.726 664.909 515.726C662.206 515.726 659.808 514.797 657.714 512.937C655.62 511.062 654.573 508.367 654.573 504.851ZM666.362 510.289C667.284 510.289 668.151 510.023 668.964 509.492C670.479 508.523 671.237 506.844 671.237 504.453C671.237 502.531 670.784 501.008 669.878 499.883C668.987 498.758 667.761 498.195 666.198 498.195C665.058 498.195 664.081 498.515 663.269 499.156C661.987 500.156 661.347 501.851 661.347 504.242C661.347 506.258 661.753 507.773 662.565 508.789C663.394 509.789 664.659 510.289 666.362 510.289Z" fill="#4221B0"/>
<path d="M615.297 548.772C615.361 549.233 615.486 549.577 615.673 549.804C616.015 550.219 616.6 550.427 617.43 550.427C617.926 550.427 618.33 550.372 618.64 550.262C619.228 550.053 619.521 549.663 619.521 549.094C619.521 548.761 619.376 548.503 619.084 548.321C618.792 548.143 618.334 547.986 617.71 547.849L616.644 547.61C615.595 547.373 614.871 547.116 614.47 546.838C613.791 546.373 613.451 545.646 613.451 544.657C613.451 543.755 613.779 543.005 614.436 542.408C615.092 541.811 616.056 541.512 617.327 541.512C618.389 541.512 619.294 541.795 620.041 542.36C620.793 542.921 621.187 543.736 621.224 544.807H619.2C619.164 544.201 618.899 543.771 618.407 543.515C618.079 543.347 617.671 543.262 617.184 543.262C616.641 543.262 616.208 543.372 615.885 543.591C615.561 543.809 615.399 544.115 615.399 544.507C615.399 544.867 615.559 545.135 615.878 545.313C616.083 545.432 616.521 545.571 617.19 545.73L618.927 546.147C619.688 546.33 620.262 546.573 620.649 546.879C621.251 547.353 621.552 548.038 621.552 548.936C621.552 549.857 621.199 550.622 620.492 551.233C619.79 551.839 618.797 552.142 617.512 552.142C616.199 552.142 615.167 551.844 614.415 551.247C613.663 550.645 613.287 549.82 613.287 548.772H615.297ZM627.403 547.104C627.367 546.826 627.273 546.576 627.123 546.352C626.904 546.052 626.565 545.901 626.104 545.901C625.448 545.901 624.999 546.227 624.758 546.879C624.63 547.225 624.566 547.685 624.566 548.26C624.566 548.806 624.63 549.246 624.758 549.579C624.99 550.199 625.428 550.509 626.07 550.509C626.526 550.509 626.85 550.385 627.041 550.139C627.232 549.893 627.349 549.574 627.39 549.182H629.379C629.333 549.775 629.119 550.335 628.736 550.864C628.126 551.716 627.221 552.142 626.022 552.142C624.824 552.142 623.942 551.787 623.377 551.076C622.812 550.365 622.529 549.442 622.529 548.307C622.529 547.027 622.841 546.031 623.466 545.32C624.09 544.609 624.951 544.254 626.05 544.254C626.984 544.254 627.747 544.463 628.34 544.883C628.937 545.302 629.29 546.042 629.399 547.104H627.403ZM634.854 544.24C635.315 544.24 635.732 544.32 636.105 544.479C636.484 544.639 636.794 544.883 637.035 545.211C637.24 545.489 637.366 545.776 637.411 546.072C637.457 546.364 637.479 546.842 637.479 547.508V551.883H635.49V547.35C635.49 546.949 635.422 546.626 635.285 546.38C635.107 546.033 634.77 545.86 634.273 545.86C633.758 545.86 633.367 546.033 633.098 546.38C632.833 546.721 632.701 547.211 632.701 547.849V551.883H630.76V541.841H632.701V545.402C632.984 544.969 633.31 544.668 633.679 544.5C634.052 544.327 634.444 544.24 634.854 544.24ZM642.647 550.509C643.217 550.509 643.655 550.306 643.96 549.9C644.265 549.495 644.418 548.918 644.418 548.171C644.418 547.423 644.265 546.849 643.96 546.448C643.655 546.042 643.217 545.84 642.647 545.84C642.078 545.84 641.638 546.042 641.328 546.448C641.023 546.849 640.87 547.423 640.87 548.171C640.87 548.918 641.023 549.495 641.328 549.9C641.638 550.306 642.078 550.509 642.647 550.509ZM646.462 548.171C646.462 549.264 646.147 550.201 645.519 550.98C644.89 551.755 643.935 552.142 642.654 552.142C641.374 552.142 640.419 551.755 639.79 550.98C639.161 550.201 638.847 549.264 638.847 548.171C638.847 547.095 639.161 546.163 639.79 545.375C640.419 544.586 641.374 544.192 642.654 544.192C643.935 544.192 644.89 544.586 645.519 545.375C646.147 546.163 646.462 547.095 646.462 548.171ZM651.206 550.509C651.776 550.509 652.213 550.306 652.519 549.9C652.824 549.495 652.977 548.918 652.977 548.171C652.977 547.423 652.824 546.849 652.519 546.448C652.213 546.042 651.776 545.84 651.206 545.84C650.636 545.84 650.197 546.042 649.887 546.448C649.581 546.849 649.429 547.423 649.429 548.171C649.429 548.918 649.581 549.495 649.887 549.9C650.197 550.306 650.636 550.509 651.206 550.509ZM655.021 548.171C655.021 549.264 654.706 550.201 654.077 550.98C653.448 551.755 652.493 552.142 651.213 552.142C649.932 552.142 648.978 551.755 648.349 550.98C647.72 550.201 647.405 549.264 647.405 548.171C647.405 547.095 647.72 546.163 648.349 545.375C648.978 544.586 649.932 544.192 651.213 544.192C652.493 544.192 653.448 544.586 654.077 545.375C654.706 546.163 655.021 547.095 655.021 548.171ZM658.411 551.883H656.463V541.806H658.411V551.883ZM661.836 549.504C661.877 549.85 661.966 550.096 662.103 550.242C662.344 550.502 662.791 550.632 663.442 550.632C663.825 550.632 664.128 550.575 664.352 550.461C664.579 550.347 664.693 550.176 664.693 549.948C664.693 549.729 664.602 549.563 664.42 549.449C664.238 549.335 663.561 549.139 662.39 548.861C661.547 548.651 660.952 548.389 660.605 548.075C660.259 547.765 660.086 547.318 660.086 546.735C660.086 546.047 660.355 545.457 660.893 544.965C661.435 544.468 662.196 544.219 663.176 544.219C664.105 544.219 664.862 544.406 665.445 544.78C666.033 545.149 666.37 545.789 666.457 546.701H664.509C664.481 546.45 664.411 546.252 664.297 546.106C664.083 545.842 663.718 545.71 663.203 545.71C662.779 545.71 662.476 545.776 662.294 545.908C662.116 546.04 662.027 546.195 662.027 546.373C662.027 546.596 662.123 546.758 662.314 546.858C662.506 546.963 663.183 547.143 664.345 547.398C665.119 547.58 665.701 547.856 666.088 548.225C666.471 548.599 666.662 549.066 666.662 549.627C666.662 550.365 666.386 550.969 665.835 551.438C665.288 551.903 664.44 552.135 663.292 552.135C662.121 552.135 661.255 551.889 660.694 551.397C660.138 550.9 659.86 550.269 659.86 549.504H661.836Z" fill="#1A0D46"/>
<defs>
<filter id="filter0_di_241_943" x="46.103" y="0.823303" width="67" height="67" filterUnits="userSpaceOnUse" color-interpolation-filters="sRGB">
<feFlood flood-opacity="0" result="BackgroundImageFix"/>
<feColorMatrix in="SourceAlpha" type="matrix" values="0 0 0 0 0 0 0 0 0 0 0 0 0 0 0 0 0 0 127 0" result="hardAlpha"/>
<feMorphology radius="2" operator="dilate" in="SourceAlpha" result="effect1_dropShadow_241_943"/>
<feOffset dx="1" dy="4"/>
<feGaussianBlur stdDeviation="2.75"/>
<feComposite in2="hardAlpha" operator="out"/>
<feColorMatrix type="matrix" values="0 0 0 0 0 0 0 0 0 0 0 0 0 0 0 0 0 0 0.25 0"/>
<feBlend mode="normal" in2="BackgroundImageFix" result="effect1_dropShadow_241_943"/>
<feBlend mode="normal" in="SourceGraphic" in2="effect1_dropShadow_241_943" result="shape"/>
<feColorMatrix in="SourceAlpha" type="matrix" values="0 0 0 0 0 0 0 0 0 0 0 0 0 0 0 0 0 0 127 0" result="hardAlpha"/>
<feOffset dy="4"/>
<feGaussianBlur stdDeviation="2"/>
<feComposite in2="hardAlpha" operator="arithmetic" k2="-1" k3="1"/>
<feColorMatrix type="matrix" values="0 0 0 0 0.258824 0 0 0 0 0.129412 0 0 0 0 0.690196 0 0 0 0.25 0"/>
<feBlend mode="normal" in2="shape" result="effect2_innerShadow_241_943"/>
</filter>
<filter id="filter1_di_241_943" x="589.103" y="0.823303" width="67" height="67" filterUnits="userSpaceOnUse" color-interpolation-filters="sRGB">
<feFlood flood-opacity="0" result="BackgroundImageFix"/>
<feColorMatrix in="SourceAlpha" type="matrix" values="0 0 0 0 0 0 0 0 0 0 0 0 0 0 0 0 0 0 127 0" result="hardAlpha"/>
<feMorphology radius="2" operator="dilate" in="SourceAlpha" result="effect1_dropShadow_241_943"/>
<feOffset dx="1" dy="4"/>
<feGaussianBlur stdDeviation="2.75"/>
<feComposite in2="hardAlpha" operator="out"/>
<feColorMatrix type="matrix" values="0 0 0 0 0 0 0 0 0 0 0 0 0 0 0 0 0 0 0.25 0"/>
<feBlend mode="normal" in2="BackgroundImageFix" result="effect1_dropShadow_241_943"/>
<feBlend mode="normal" in="SourceGraphic" in2="effect1_dropShadow_241_943" result="shape"/>
<feColorMatrix in="SourceAlpha" type="matrix" values="0 0 0 0 0 0 0 0 0 0 0 0 0 0 0 0 0 0 127 0" result="hardAlpha"/>
<feOffset dy="4"/>
<feGaussianBlur stdDeviation="2"/>
<feComposite in2="hardAlpha" operator="arithmetic" k2="-1" k3="1"/>
<feColorMatrix type="matrix" values="0 0 0 0 0.258824 0 0 0 0 0.129412 0 0 0 0 0.690196 0 0 0 0.25 0"/>
<feBlend mode="normal" in2="shape" result="effect2_innerShadow_241_943"/>
</filter>
<filter id="filter2_di_241_943" x="30.1472" y="404.632" width="60.1177" height="60.1176" filterUnits="userSpaceOnUse" color-interpolation-filters="sRGB">
<feFlood flood-opacity="0" result="BackgroundImageFix"/>
<feColorMatrix in="SourceAlpha" type="matrix" values="0 0 0 0 0 0 0 0 0 0 0 0 0 0 0 0 0 0 127 0" result="hardAlpha"/>
<feMorphology radius="2" operator="dilate" in="SourceAlpha" result="effect1_dropShadow_241_943"/>
<feOffset dx="1" dy="4"/>
<feGaussianBlur stdDeviation="2.75"/>
<feComposite in2="hardAlpha" operator="out"/>
<feColorMatrix type="matrix" values="0 0 0 0 0 0 0 0 0 0 0 0 0 0 0 0 0 0 0.25 0"/>
<feBlend mode="normal" in2="BackgroundImageFix" result="effect1_dropShadow_241_943"/>
<feBlend mode="normal" in="SourceGraphic" in2="effect1_dropShadow_241_943" result="shape"/>
<feColorMatrix in="SourceAlpha" type="matrix" values="0 0 0 0 0 0 0 0 0 0 0 0 0 0 0 0 0 0 127 0" result="hardAlpha"/>
<feOffset dy="4"/>
<feGaussianBlur stdDeviation="2"/>
<feComposite in2="hardAlpha" operator="arithmetic" k2="-1" k3="1"/>
<feColorMatrix type="matrix" values="0 0 0 0 0.258824 0 0 0 0 0.129412 0 0 0 0 0.690196 0 0 0 0.25 0"/>
<feBlend mode="normal" in2="shape" result="effect2_innerShadow_241_943"/>
</filter>
<filter id="filter3_di_241_943" x="611.147" y="404.632" width="60.1177" height="60.1176" filterUnits="userSpaceOnUse" color-interpolation-filters="sRGB">
<feFlood flood-opacity="0" result="BackgroundImageFix"/>
<feColorMatrix in="SourceAlpha" type="matrix" values="0 0 0 0 0 0 0 0 0 0 0 0 0 0 0 0 0 0 127 0" result="hardAlpha"/>
<feMorphology radius="2" operator="dilate" in="SourceAlpha" result="effect1_dropShadow_241_943"/>
<feOffset dx="1" dy="4"/>
<feGaussianBlur stdDeviation="2.75"/>
<feComposite in2="hardAlpha" operator="out"/>
<feColorMatrix type="matrix" values="0 0 0 0 0 0 0 0 0 0 0 0 0 0 0 0 0 0 0.25 0"/>
<feBlend mode="normal" in2="BackgroundImageFix" result="effect1_dropShadow_241_943"/>
<feBlend mode="normal" in="SourceGraphic" in2="effect1_dropShadow_241_943" result="shape"/>
<feColorMatrix in="SourceAlpha" type="matrix" values="0 0 0 0 0 0 0 0 0 0 0 0 0 0 0 0 0 0 127 0" result="hardAlpha"/>
<feOffset dy="4"/>
<feGaussianBlur stdDeviation="2"/>
<feComposite in2="hardAlpha" operator="arithmetic" k2="-1" k3="1"/>
<feColorMatrix type="matrix" values="0 0 0 0 0.258824 0 0 0 0 0.129412 0 0 0 0 0.690196 0 0 0 0.25 0"/>
<feBlend mode="normal" in2="shape" result="effect2_innerShadow_241_943"/>
</filter>
</defs>
</svg>
