<svg width="48" height="48" viewBox="0 0 48 48" fill="none" xmlns="http://www.w3.org/2000/svg">
<g filter="url(#filter0_b_314_5673)">
<rect width="48" height="48" rx="24" fill="#D9D3EF"/>
<path d="M19 22C20.1046 22 21 22.8954 21 24C21 25.1046 20.1046 26 19 26C17.8954 26 17 25.1046 17 24C17 22.8954 17.8954 22 19 22Z" fill="#0D0723"/>
<path d="M29 22C30.1046 22 31 22.8954 31 24C31 25.1046 30.1046 26 29 26C27.8954 26 27 25.1046 27 24C27 22.8954 27.8954 22 29 22Z" fill="#0D0723"/>
</g>
<defs>
<filter id="filter0_b_314_5673" x="-60" y="-60" width="168" height="168" filterUnits="userSpaceOnUse" color-interpolation-filters="sRGB">
<feFlood flood-opacity="0" result="BackgroundImageFix"/>
<feGaussianBlur in="BackgroundImageFix" stdDeviation="30"/>
<feComposite in2="SourceAlpha" operator="in" result="effect1_backgroundBlur_314_5673"/>
<feBlend mode="normal" in="SourceGraphic" in2="effect1_backgroundBlur_314_5673" result="shape"/>
</filter>
</defs>
</svg>
