<svg width="105" height="40" viewBox="0 0 105 40" fill="none" xmlns="http://www.w3.org/2000/svg">
<path fill-rule="evenodd" clip-rule="evenodd" d="M12.3926 1.96571C17.1001 -0.655157 22.8999 -0.655156 27.6074 1.96571L32.3926 4.6298C37.1001 7.25067 40 12.0942 40 17.336V22.6641C40 27.9059 37.1001 32.7495 32.3926 35.3703L27.6074 38.0344C22.8999 40.6553 17.1001 40.6553 12.3926 38.0344L7.60744 35.3703C2.89994 32.7495 0 27.9059 0 22.6641V17.336C0 12.0942 2.89994 7.25067 7.60744 4.6298L12.3926 1.96571ZM19.81 8.85154C17.2468 8.7159 17.2467 8.71703 17.2467 8.71818L17.2465 8.7206L17.2463 8.7258L17.2457 8.73772L17.2445 8.76752C17.2437 8.79001 17.2428 8.81773 17.242 8.8504C17.2406 8.91571 17.2396 9.0011 17.2407 9.10439C17.2427 9.31054 17.2526 9.59061 17.2819 9.92685C17.3401 10.5939 17.4775 11.5123 17.7998 12.5267C18.4485 14.568 19.8982 17.122 23.0163 18.6095C24.4827 19.309 25.1885 20.4786 25.5493 21.6141C25.7317 22.1881 25.8124 22.7214 25.8462 23.109C25.8629 23.3 25.8675 23.448 25.8684 23.538C25.8689 23.5829 25.8684 23.6126 25.8681 23.6254C25.8679 23.6318 25.8678 23.6339 25.8679 23.6314L25.8682 23.6243L25.8685 23.6181L25.8687 23.6143L25.8688 23.6123C25.8689 23.6112 25.8689 23.6101 28.4321 23.7458C30.9954 23.8814 30.9954 23.8803 30.9955 23.8791L30.9956 23.8767L30.9959 23.8715L30.9964 23.8596L30.9976 23.8298C30.9985 23.8073 30.9994 23.7796 31.0001 23.7469C31.0016 23.6816 31.0025 23.5962 31.0015 23.4929C30.9994 23.2868 30.9896 23.0067 30.9602 22.6705C30.902 22.0034 30.7646 21.085 30.4423 20.0706C29.7937 18.0293 28.344 15.4753 25.2258 13.9878C23.7595 13.2883 23.0537 12.1187 22.6929 10.9832C22.5105 10.4092 22.4297 9.87588 22.3959 9.48835C22.3792 9.29728 22.3746 9.14933 22.3737 9.05927C22.3733 9.01446 22.3738 8.9847 22.3741 8.97189L22.3742 8.96587L22.3739 8.973L22.3736 8.9792L22.3734 8.98296L22.3733 8.98501C22.3733 8.98609 22.3732 8.98718 19.81 8.85154ZM11.4272 17.4507C8.86397 17.315 8.86391 17.3161 8.86385 17.3173L8.86373 17.3197L8.86348 17.3249L8.86292 17.3368L8.86169 17.3666C8.86085 17.3891 8.85997 17.4168 8.85923 17.4495C8.85775 17.5148 8.85683 17.6002 8.85786 17.7035C8.85992 17.9097 8.86978 18.1897 8.89912 18.526C8.95731 19.193 9.09471 20.1114 9.41704 21.1258C10.0656 23.1671 11.5154 25.7211 14.6335 27.2086C16.0999 27.9081 16.8057 29.0777 17.1665 30.2132C17.3488 30.7872 17.4296 31.3206 17.4634 31.7081C17.4801 31.8991 17.4847 32.0471 17.4856 32.1372C17.486 32.182 17.4856 32.2117 17.4853 32.2245C17.4851 32.2309 17.485 32.233 17.4851 32.2306L17.4854 32.2234L17.4857 32.2172L17.4859 32.2135L17.486 32.2114C17.4861 32.2103 17.4861 32.2093 20.0493 32.3449C22.6126 32.4805 22.6126 32.4794 22.6127 32.4782L22.6128 32.4758L22.6131 32.4706L22.6136 32.4587L22.6148 32.4289C22.6157 32.4064 22.6166 32.3787 22.6173 32.346C22.6188 32.2807 22.6197 32.1953 22.6187 32.092C22.6166 31.8859 22.6067 31.6058 22.5774 31.2696C22.5192 30.6025 22.3818 29.6842 22.0595 28.6697C21.4109 26.6285 19.9611 24.0744 16.843 22.5869C15.3767 21.8874 14.6709 20.7179 14.3101 19.5823C14.1277 19.0084 14.0469 18.475 14.0131 18.0875C13.9964 17.8964 13.9918 17.7484 13.9909 17.6584C13.9905 17.6136 13.991 17.5838 13.9913 17.571L13.9914 17.565L13.9911 17.5721L13.9908 17.5783L13.9906 17.5821L13.9905 17.5841C13.9905 17.5852 13.9904 17.5863 11.4272 17.4507Z" fill="black"/>
<path d="M54.8291 13.5449L52.5703 24.1709H58.9863L58.4941 26.5H49.3711L52.1221 13.5449H54.8291ZM73.6143 14.6611C74.6689 15.8506 74.9443 17.6318 74.4404 20.0049C73.9424 22.3311 72.9082 24.1123 71.3379 25.3486C70.1484 26.3564 68.6279 26.8604 66.7764 26.8604C64.9248 26.8604 63.6152 26.3564 62.8477 25.3486C61.7988 24.1123 61.5234 22.3311 62.0215 20.0049C62.5254 17.6318 63.5596 15.8506 65.124 14.6611C66.3135 13.6533 67.834 13.1494 69.6855 13.1494C71.5371 13.1494 72.8467 13.6533 73.6143 14.6611ZM69.2021 15.4434C68.1299 15.4434 67.1895 15.8389 66.3809 16.6299C65.5781 17.4209 65.0215 18.5459 64.7109 20.0049C64.4004 21.4639 64.4795 22.5889 64.9482 23.3799C65.417 24.1709 66.1875 24.5664 67.2598 24.5664C68.332 24.5664 69.2666 24.1709 70.0635 23.3799C70.8662 22.5889 71.4229 21.4639 71.7334 20.0049C72.0381 18.5518 71.959 17.4297 71.4961 16.6387C71.0391 15.8418 70.2744 15.4434 69.2021 15.4434ZM82.916 21.71L83.3818 19.5479H88.7783L87.3018 26.5H85.5088L85.5791 24.8828C84.9229 25.498 84.3604 25.9316 83.8916 26.1836C83.083 26.623 82.1572 26.8428 81.1143 26.8428C79.3975 26.8428 78.1172 26.248 77.2734 25.0586C76.3887 23.8633 76.166 22.2285 76.6055 20.1543C77.0508 18.0566 77.9854 16.375 79.4092 15.1094C80.833 13.8438 82.4941 13.2109 84.3926 13.2109C86.0391 13.2109 87.2725 13.6299 88.0928 14.4678C88.9131 15.2998 89.2646 16.3398 89.1475 17.5879H86.4844C86.4668 16.7031 86.0977 16.085 85.377 15.7334C84.9727 15.54 84.498 15.4434 83.9531 15.4434C82.9102 15.4434 81.9697 15.8389 81.1318 16.6299C80.2939 17.415 79.7051 18.5986 79.3652 20.1807C79.0312 21.7744 79.1543 22.9023 79.7344 23.5645C80.3203 24.2266 81.0762 24.5576 82.002 24.5576C82.9102 24.5576 83.71 24.2969 84.4014 23.7754C85.0986 23.248 85.6025 22.5596 85.9131 21.71H82.916ZM103.134 14.6611C104.188 15.8506 104.464 17.6318 103.96 20.0049C103.462 22.3311 102.428 24.1123 100.857 25.3486C99.668 26.3564 98.1475 26.8604 96.2959 26.8604C94.4443 26.8604 93.1348 26.3564 92.3672 25.3486C91.3184 24.1123 91.043 22.3311 91.541 20.0049C92.0449 17.6318 93.0791 15.8506 94.6436 14.6611C95.833 13.6533 97.3535 13.1494 99.2051 13.1494C101.057 13.1494 102.366 13.6533 103.134 14.6611ZM98.7217 15.4434C97.6494 15.4434 96.709 15.8389 95.9004 16.6299C95.0977 17.4209 94.541 18.5459 94.2305 20.0049C93.9199 21.4639 93.999 22.5889 94.4678 23.3799C94.9365 24.1709 95.707 24.5664 96.7793 24.5664C97.8516 24.5664 98.7861 24.1709 99.583 23.3799C100.386 22.5889 100.942 21.4639 101.253 20.0049C101.558 18.5518 101.479 17.4297 101.016 16.6387C100.559 15.8418 99.7939 15.4434 98.7217 15.4434Z" fill="black"/>
</svg>
