<svg width="1133" height="1125" viewBox="0 0 1133 1125" fill="none" xmlns="http://www.w3.org/2000/svg">
<path opacity="0.5" fill-rule="evenodd" clip-rule="evenodd" d="M621.553 555.852C622.047 554.855 622.515 553.839 622.958 552.804C623.4 551.768 623.811 550.728 624.191 549.683L643.849 556.722C643.339 558.126 642.787 559.522 642.194 560.909C641.601 562.296 640.972 563.659 640.309 564.999L621.553 555.852ZM626.124 543.263L646.45 548.079C647.161 545.124 647.696 542.154 648.061 539.182L627.317 536.671C627.047 538.872 626.65 541.072 626.124 543.263ZM627.755 529.987L648.651 530.16C648.677 527.132 648.529 524.12 648.214 521.136L627.43 523.297C627.664 525.51 627.773 527.744 627.755 529.987ZM626.352 516.684L646.761 512.228C646.11 509.286 645.293 506.388 644.318 503.546L624.536 510.233C625.261 512.345 625.868 514.499 626.352 516.684ZM622.009 504.022L640.918 495.191C639.63 492.475 638.189 489.827 636.6 487.262L618.8 498.129C619.98 500.035 621.051 502.002 622.009 504.022ZM614.948 492.629L631.411 479.852C629.549 477.489 627.547 475.219 625.41 473.059L610.499 487.592C612.082 489.193 613.567 490.876 614.948 492.629ZM605.508 483.086L618.672 466.976C616.33 465.09 613.866 463.323 611.287 461.687L600.035 479.167C601.947 480.38 603.773 481.69 605.508 483.086ZM594.153 475.882L603.367 457.264C602.018 456.606 600.644 455.981 599.247 455.393C597.85 454.804 596.443 454.257 595.029 453.75L587.938 473.263C588.991 473.64 590.039 474.048 591.082 474.487C592.124 474.927 593.148 475.392 594.153 475.882ZM581.471 471.345L586.322 451.168C583.345 450.463 580.353 449.931 577.359 449.569L574.829 470.16C577.046 470.428 579.263 470.822 581.471 471.345ZM568.097 469.726L568.271 448.983C565.22 448.958 562.185 449.104 559.179 449.417L561.356 470.048C563.586 469.816 565.836 469.707 568.097 469.726ZM554.695 471.118L550.205 450.859C547.242 451.506 544.322 452.316 541.459 453.284L548.195 472.92C550.324 472.201 552.494 471.599 554.695 471.118ZM541.939 475.43L533.043 456.659C530.306 457.938 527.638 459.368 525.054 460.946L536.002 478.615C537.922 477.443 539.904 476.38 541.939 475.43ZM530.461 482.438L517.59 466.097C515.209 467.945 512.923 469.932 510.746 472.053L525.387 486.855C527 485.283 528.695 483.809 530.461 482.438ZM520.848 491.809L504.618 478.742C502.718 481.067 500.938 483.512 499.29 486.072L516.9 497.242C518.122 495.343 519.441 493.531 520.848 491.809ZM513.59 503.081C513.097 504.078 512.628 505.094 512.185 506.129C511.743 507.164 511.332 508.205 510.952 509.25L491.294 502.211C491.805 500.807 492.356 499.411 492.949 498.024C493.542 496.637 494.171 495.273 494.834 493.934L513.59 503.081ZM509.02 515.669L488.693 510.854C487.983 513.809 487.447 516.779 487.082 519.751L507.826 522.262C508.096 520.061 508.493 517.86 509.02 515.669ZM507.389 528.945L486.492 528.773C486.467 531.8 486.614 534.813 486.929 537.797L507.713 535.636C507.479 533.422 507.37 531.189 507.389 528.945ZM508.791 542.249L488.382 546.705C489.034 549.646 489.85 552.545 490.825 555.387L510.607 548.7C509.882 546.587 509.275 544.434 508.791 542.249ZM513.135 554.911L494.225 563.741C495.513 566.458 496.954 569.106 498.543 571.671L516.343 560.803C515.163 558.898 514.092 556.93 513.135 554.911ZM520.195 566.304L503.732 579.081C505.594 581.444 507.596 583.713 509.733 585.874L524.644 571.34C523.061 569.739 521.576 568.057 520.195 566.304ZM529.636 575.846L516.471 591.957C518.814 593.843 521.277 595.61 523.856 597.246L535.108 579.766C533.196 578.553 531.37 577.243 529.636 575.846ZM540.991 583.051L531.776 601.669C533.125 602.327 534.499 602.951 535.896 603.54C537.293 604.129 538.7 604.676 540.114 605.183L547.205 585.669C546.152 585.293 545.104 584.885 544.062 584.445C543.019 584.006 541.995 583.541 540.991 583.051ZM553.672 587.588L548.821 607.765C551.798 608.47 554.79 609.001 557.784 609.364L560.314 588.773C558.097 588.504 555.88 588.111 553.672 587.588ZM567.047 589.207L566.873 609.95C569.923 609.975 572.958 609.828 575.964 609.516L573.787 588.885C571.557 589.117 569.307 589.225 567.047 589.207ZM580.449 587.814L584.938 608.074C587.901 607.427 590.821 606.616 593.684 605.649L586.948 586.012C584.82 586.732 582.65 587.334 580.449 587.814ZM593.205 583.503L602.101 602.273C604.837 600.995 607.505 599.565 610.089 597.987L599.141 580.318C597.221 581.49 595.239 582.553 593.205 583.503ZM604.682 576.494L617.554 592.836C619.935 590.988 622.22 589.001 624.397 586.879L609.756 572.078C608.143 573.65 606.448 575.123 604.682 576.494ZM614.295 567.123L630.525 580.191C632.425 577.866 634.205 575.42 635.853 572.86L618.243 561.691C617.022 563.589 615.702 565.401 614.295 567.123Z" fill="#1A0D46"/>
<path opacity="0.5" fill-rule="evenodd" clip-rule="evenodd" d="M663.152 559.235C663.728 557.581 664.262 555.902 664.754 554.2C665.246 552.498 665.689 550.793 666.083 549.087L680.631 552.405C680.177 554.367 679.668 556.328 679.103 558.284C678.538 560.24 677.923 562.171 677.26 564.074L663.152 559.235ZM667.982 537.986L682.818 539.617C683.272 535.551 683.497 531.495 683.501 527.464L668.574 527.449C668.57 530.943 668.376 534.46 667.982 537.986ZM667.924 516.213L682.751 514.503C682.277 510.454 681.582 506.451 680.674 502.51L666.123 505.812C666.91 509.231 667.513 512.703 667.924 516.213ZM662.96 495.002L677.03 490.054C675.664 486.227 674.092 482.481 672.323 478.833L658.873 485.259C660.409 488.428 661.774 491.68 662.96 495.002ZM653.376 475.414L665.993 467.497C663.813 464.075 661.446 460.766 658.901 457.589L647.218 466.811C649.428 469.569 651.483 472.442 653.376 475.414ZM639.658 458.42L650.19 447.92C647.304 445.068 644.253 442.361 641.045 439.816L631.727 451.392C634.508 453.598 637.155 455.945 639.658 458.42ZM622.472 444.891L630.369 432.317C626.923 430.185 623.339 428.225 619.625 426.452L613.156 439.805C616.378 441.343 619.485 443.042 622.472 444.891ZM602.666 435.521L607.541 421.516C605.624 420.858 603.679 420.248 601.708 419.687C599.737 419.126 597.762 418.621 595.785 418.17L592.443 432.611C594.161 433.003 595.879 433.442 597.594 433.93C599.309 434.419 601 434.949 602.666 435.521ZM581.26 430.726L582.902 415.999C578.806 415.549 574.72 415.326 570.66 415.322L570.645 430.139C574.164 430.142 577.707 430.336 581.26 430.726ZM559.326 430.784L557.603 416.066C553.524 416.536 549.491 417.226 545.521 418.127L548.847 432.572C552.291 431.79 555.789 431.191 559.326 430.784ZM537.957 435.711L532.972 421.745C529.117 423.101 525.344 424.661 521.669 426.417L528.142 439.768C531.334 438.243 534.61 436.888 537.957 435.711ZM518.224 445.225L510.248 432.701C506.801 434.864 503.468 437.214 500.267 439.74L509.557 451.338C512.336 449.144 515.23 447.104 518.224 445.225ZM501.104 458.842L490.526 448.387C487.653 451.252 484.926 454.281 482.362 457.465L494.024 466.715C496.246 463.954 498.611 461.327 501.104 458.842ZM487.474 475.901L474.808 468.062C472.66 471.483 470.685 475.041 468.899 478.727L482.351 485.149C483.9 481.951 485.612 478.866 487.474 475.901ZM478.035 495.562C477.459 497.216 476.925 498.895 476.433 500.597C475.941 502.299 475.498 504.004 475.104 505.71L460.556 502.392C461.01 500.429 461.519 498.469 462.085 496.513C462.65 494.557 463.264 492.626 463.927 490.723L478.035 495.562ZM473.205 516.811L458.369 515.18C457.915 519.246 457.691 523.302 457.686 527.333L472.613 527.348C472.617 523.854 472.812 520.337 473.205 516.811ZM473.263 538.584L458.436 540.294C458.91 544.343 459.605 548.346 460.513 552.287L475.064 548.985C474.277 545.566 473.674 542.094 473.263 538.584ZM478.227 559.795L464.157 564.743C465.523 568.57 467.095 572.315 468.864 575.964L482.314 569.538C480.778 566.369 479.413 563.117 478.227 559.795ZM487.812 579.383L475.194 587.3C477.374 590.722 479.741 594.031 482.286 597.208L493.969 587.986C491.76 585.228 489.704 582.355 487.812 579.383ZM501.529 596.377L490.997 606.877C493.883 609.729 496.934 612.436 500.142 614.981L509.46 603.405C506.679 601.199 504.032 598.852 501.529 596.377ZM518.715 609.906L510.818 622.48C514.264 624.612 517.848 626.572 521.562 628.345L528.031 614.992C524.809 613.454 521.702 611.755 518.715 609.906ZM538.521 619.276L533.646 633.281C535.564 633.938 537.508 634.549 539.479 635.11C541.45 635.67 543.425 636.176 545.402 636.627L548.744 622.186C547.026 621.794 545.308 621.355 543.593 620.867C541.879 620.378 540.187 619.848 538.521 619.276ZM559.928 624.071L558.285 638.798C562.381 639.248 566.467 639.471 570.527 639.475L570.543 624.658C567.023 624.655 563.48 624.461 559.928 624.071ZM581.862 624.013L583.584 638.731C587.663 638.261 591.696 637.571 595.666 636.67L592.34 622.225C588.896 623.007 585.398 623.605 581.862 624.013ZM603.23 619.086L608.215 633.052C612.07 631.696 615.843 630.136 619.519 628.38L613.045 615.029C609.853 616.554 606.577 617.909 603.23 619.086ZM622.963 609.572L630.939 622.096C634.387 619.933 637.719 617.583 640.92 615.057L631.63 603.459C628.851 605.653 625.957 607.693 622.963 609.572ZM640.083 595.955L650.661 606.41C653.534 603.545 656.261 600.516 658.825 597.332L647.164 588.082C644.941 590.843 642.576 593.47 640.083 595.955ZM653.713 578.895L666.379 586.734C668.528 583.314 670.502 579.756 672.288 576.07L658.836 569.648C657.287 572.846 655.575 575.931 653.713 578.895Z" fill="#1A0D46"/>
<path opacity="0.5" fill-rule="evenodd" clip-rule="evenodd" d="M700.788 533.805C700.835 532.364 700.858 530.918 700.858 529.466C700.858 528.015 700.835 526.568 700.788 525.128L713.469 524.722C713.52 526.298 713.546 527.879 713.546 529.466C713.546 531.053 713.52 532.635 713.469 534.21L700.788 533.805ZM700.226 516.493L712.854 515.273C712.543 512.108 712.13 508.972 711.618 505.868L699.097 507.905C699.565 510.738 699.942 513.602 700.226 516.493ZM697.404 499.409L709.763 496.559C709.039 493.466 708.215 490.41 707.295 487.395L695.152 491.047C695.991 493.797 696.743 496.586 697.404 499.409ZM692.349 482.847L704.222 478.409C703.096 475.439 701.874 472.516 700.561 469.643L689.007 474.848C690.206 477.47 691.321 480.137 692.349 482.847ZM685.144 467.087L696.328 461.14C694.821 458.347 693.225 455.61 691.543 452.931L680.775 459.591C682.311 462.038 683.768 464.537 685.144 467.087ZM675.922 452.396L686.229 445.052C684.371 442.482 682.43 439.975 680.411 437.536L670.608 445.531C672.452 447.759 674.225 450.049 675.922 452.396ZM664.853 439.023L674.112 430.412C671.935 428.106 669.684 425.87 667.361 423.71L658.685 432.9C660.808 434.874 662.865 436.916 664.853 439.023ZM652.129 427.188L660.184 417.457C657.726 415.453 655.201 413.526 652.612 411.682L645.213 421.913C647.578 423.598 649.884 425.357 652.129 427.188ZM637.964 417.096L644.675 406.407C641.976 404.737 639.218 403.153 636.404 401.657L630.414 412.759C632.982 414.125 635.5 415.571 637.964 417.096ZM622.595 408.924L627.838 397.456C624.944 396.152 621.999 394.939 619.008 393.821L614.536 405.607C617.266 406.628 619.954 407.734 622.595 408.924ZM606.276 402.824L609.955 390.771C606.918 389.858 603.839 389.04 600.723 388.321L597.852 400.589C600.696 401.245 603.505 401.991 606.276 402.824ZM589.293 398.908L591.345 386.48C588.218 385.971 585.059 385.561 581.87 385.253L580.641 397.788C583.554 398.069 586.439 398.444 589.293 398.908ZM571.942 397.23L572.351 384.642C570.764 384.591 569.17 384.566 567.572 384.566C565.973 384.566 564.38 384.591 562.793 384.642L563.201 397.23C564.652 397.183 566.109 397.16 567.572 397.16C569.034 397.16 570.491 397.183 571.942 397.23ZM554.502 397.788L553.273 385.253C550.085 385.561 546.925 385.971 543.798 386.48L545.85 398.908C548.705 398.444 551.59 398.069 554.502 397.788ZM537.292 400.589L534.421 388.321C531.304 389.04 528.226 389.858 525.189 390.771L528.868 402.824C531.639 401.991 534.448 401.245 537.292 400.589ZM520.607 405.607L516.136 393.821C513.144 394.939 510.199 396.152 507.305 397.456L512.549 408.924C515.19 407.734 517.877 406.628 520.607 405.607ZM504.73 412.759L498.739 401.657C495.926 403.153 493.168 404.737 490.469 406.407L497.179 417.096C499.643 415.571 502.161 414.125 504.73 412.759ZM489.93 421.913L482.531 411.682C479.943 413.526 477.418 415.453 474.96 417.457L483.014 427.188C485.259 425.357 487.566 423.598 489.93 421.913ZM476.458 432.9L467.783 423.71C465.46 425.87 463.208 428.106 461.031 430.412L470.29 439.023C472.279 436.916 474.336 434.874 476.458 432.9ZM464.536 445.531L454.733 437.536C452.713 439.975 450.773 442.482 448.914 445.052L459.221 452.396C460.918 450.049 462.691 447.759 464.536 445.531ZM454.368 459.591L443.6 452.931C441.919 455.61 440.322 458.347 438.815 461.14L450 467.087C451.375 464.537 452.833 462.038 454.368 459.591ZM446.137 474.848L434.583 469.643C433.27 472.516 432.048 475.439 430.921 478.409L442.795 482.847C443.823 480.137 444.938 477.47 446.137 474.848ZM439.992 491.047L427.849 487.395C426.929 490.41 426.105 493.466 425.381 496.559L437.74 499.409C438.4 496.586 439.152 493.797 439.992 491.047ZM436.046 507.905L423.526 505.868C423.013 508.972 422.6 512.108 422.29 515.273L434.918 516.493C435.201 513.602 435.578 510.738 436.046 507.905ZM434.355 525.128C434.309 526.568 434.285 528.015 434.285 529.466C434.285 530.918 434.309 532.364 434.355 533.805L421.674 534.21C421.623 532.635 421.597 531.053 421.597 529.466C421.597 527.879 421.623 526.298 421.674 524.722L434.355 525.128ZM434.918 542.44L422.29 543.66C422.6 546.825 423.013 549.961 423.526 553.065L436.046 551.028C435.578 548.195 435.201 545.331 434.918 542.44ZM437.74 559.524L425.381 562.374C426.105 565.467 426.929 568.523 427.849 571.538L439.992 567.886C439.152 565.135 438.4 562.347 437.74 559.524ZM442.795 576.086L430.921 580.524C432.048 583.494 433.27 586.417 434.583 589.29L446.137 584.085C444.938 581.463 443.823 578.795 442.795 576.086ZM450 591.846L438.815 597.793C440.322 600.586 441.919 603.323 443.6 606.002L454.368 599.341C452.833 596.895 451.375 594.396 450 591.846ZM459.221 606.537L448.914 613.881C450.773 616.451 452.713 618.958 454.733 621.397L464.536 613.402C462.691 611.173 460.918 608.884 459.221 606.537ZM470.29 619.91L461.031 628.521C463.208 630.827 465.46 633.063 467.783 635.223L476.458 626.033C474.336 624.059 472.279 622.017 470.29 619.91ZM483.014 631.745L474.96 641.476C477.418 643.48 479.943 645.407 482.531 647.251L489.93 637.02C487.566 635.335 485.259 633.576 483.014 631.745ZM497.179 641.837L490.469 652.526C493.168 654.196 495.926 655.78 498.739 657.276L504.73 646.174C502.161 644.808 499.643 643.362 497.179 641.837ZM512.549 650.009L507.305 661.477C510.199 662.781 513.144 663.994 516.136 665.112L520.607 653.326C517.877 652.305 515.19 651.198 512.549 650.009ZM528.868 656.108L525.189 668.162C528.226 669.075 531.304 669.893 534.421 670.611L537.292 658.344C534.448 657.688 531.639 656.942 528.868 656.108ZM545.85 660.025L543.798 672.453C546.925 672.962 550.085 673.372 553.273 673.68L554.502 661.145C551.59 660.863 548.705 660.489 545.85 660.025ZM563.201 661.703L562.793 674.291C564.38 674.342 565.973 674.367 567.572 674.367C569.17 674.367 570.764 674.342 572.351 674.291L571.942 661.703C570.491 661.749 569.034 661.773 567.572 661.773C566.109 661.773 564.652 661.749 563.201 661.703ZM580.641 661.145L581.87 673.68C585.059 673.372 588.218 672.962 591.345 672.453L589.293 660.025C586.439 660.489 583.554 660.863 580.641 661.145ZM597.852 658.344L600.723 670.611C603.839 669.893 606.918 669.075 609.955 668.162L606.276 656.108C603.505 656.942 600.696 657.688 597.852 658.344ZM614.536 653.326L619.008 665.112C621.999 663.994 624.944 662.781 627.838 661.477L622.595 650.009C619.954 651.198 617.266 652.305 614.536 653.326ZM630.414 646.174L636.404 657.276C639.218 655.78 641.976 654.196 644.675 652.526L637.964 641.837C635.5 643.362 632.982 644.808 630.414 646.174ZM645.213 637.02L652.612 647.251C655.201 645.407 657.726 643.48 660.184 641.476L652.129 631.745C649.884 633.576 647.578 635.335 645.213 637.02ZM658.685 626.033L667.361 635.223C669.684 633.063 671.935 630.827 674.112 628.521L664.853 619.91C662.865 622.017 660.808 624.059 658.685 626.033ZM670.608 613.402L680.411 621.397C682.43 618.958 684.371 616.451 686.229 613.881L675.922 606.537C674.225 608.884 672.452 611.173 670.608 613.402ZM680.775 599.341L691.543 606.002C693.225 603.323 694.821 600.586 696.328 597.793L685.144 591.846C683.768 594.396 682.311 596.895 680.775 599.341ZM689.007 584.085L700.561 589.29C701.874 586.417 703.096 583.494 704.222 580.524L692.349 576.086C691.321 578.795 690.206 581.463 689.007 584.085ZM695.152 567.886L707.295 571.538C708.215 568.523 709.039 565.467 709.763 562.374L697.404 559.524C696.743 562.347 695.991 565.135 695.152 567.886ZM699.097 551.028L711.618 553.065C712.13 549.961 712.543 546.825 712.854 543.66L700.226 542.44C699.942 545.331 699.565 548.195 699.097 551.028Z" fill="#1A0D46"/>
<path opacity="0.5" fill-rule="evenodd" clip-rule="evenodd" d="M726.729 501.874L736.977 499.85C736.346 496.702 735.627 493.585 734.824 490.502L724.708 493.1C725.462 495.994 726.137 498.919 726.729 501.874ZM722.186 484.448L732.137 481.284C731.151 478.228 730.08 475.211 728.928 472.234L719.174 475.954C720.256 478.748 721.261 481.581 722.186 484.448ZM715.682 467.644L725.207 463.381C723.881 460.46 722.474 457.584 720.989 454.754L711.722 459.544C713.116 462.201 714.437 464.902 715.682 467.644ZM707.307 451.679L716.288 446.378C714.641 443.628 712.917 440.928 711.121 438.28L702.454 444.074C704.142 446.561 705.76 449.097 707.307 451.679ZM697.179 436.749L705.504 430.483C703.559 427.935 701.542 425.444 699.458 423.011L691.498 429.73C693.456 432.015 695.35 434.356 697.179 436.749ZM685.432 423.036L693.002 415.887C690.784 413.572 688.501 411.32 686.156 409.131L678.999 416.688C681.202 418.744 683.348 420.861 685.432 423.036ZM672.22 410.706L678.942 402.765C676.479 400.711 673.958 398.725 671.38 396.807L665.115 405.108C667.537 406.909 669.906 408.776 672.22 410.706ZM657.707 399.912L663.496 391.278C660.821 389.51 658.092 387.814 655.313 386.193L650.019 395.136C652.63 396.658 655.193 398.251 657.707 399.912ZM642.074 390.793L646.855 381.571C643.999 380.112 641.095 378.729 638.148 377.426L633.896 386.9C636.664 388.124 639.391 389.423 642.074 390.793ZM625.51 383.468L629.219 373.772C626.217 372.64 623.174 371.589 620.095 370.622L616.941 380.51C619.833 381.419 622.69 382.406 625.51 383.468ZM608.218 378.034L610.806 367.986C607.7 367.197 604.56 366.493 601.389 365.874L599.373 376.051C602.351 376.632 605.3 377.294 608.218 378.034ZM590.43 374.562L591.87 364.289C588.699 363.851 585.502 363.498 582.279 363.233L581.417 373.57C584.446 373.819 587.451 374.15 590.43 374.562ZM572.362 373.075L572.649 362.707C571.043 362.663 569.431 362.641 567.815 362.641C566.199 362.641 564.587 362.663 562.981 362.707L563.268 373.075C564.779 373.034 566.294 373.013 567.815 373.013C569.336 373.013 570.851 373.034 572.362 373.075ZM485.611 395.136L480.317 386.193C477.538 387.814 474.809 389.51 472.134 391.278L477.923 399.912C480.437 398.251 483 396.658 485.611 395.136ZM470.515 405.108L464.25 396.807C461.672 398.725 459.151 400.711 456.688 402.765L463.41 410.706C465.724 408.776 468.093 406.909 470.515 405.108ZM456.631 416.688L449.474 409.131C447.129 411.32 444.846 413.572 442.628 415.887L450.198 423.036C452.282 420.861 454.427 418.744 456.631 416.688ZM444.132 429.73L436.172 423.011C434.088 425.444 432.071 427.935 430.125 430.483L438.451 436.749C440.279 434.356 442.174 432.015 444.132 429.73ZM433.176 444.074L424.509 438.28C422.713 440.928 420.989 443.628 419.342 446.378L428.323 451.679C429.87 449.097 431.488 446.561 433.176 444.074ZM423.908 459.544L414.641 454.754C413.156 457.584 411.749 460.46 410.423 463.381L419.948 467.644C421.193 464.902 422.514 462.201 423.908 459.544ZM416.456 475.954L406.702 472.234C405.55 475.211 404.479 478.229 403.493 481.284L413.443 484.448C414.369 481.581 415.374 478.748 416.456 475.954ZM410.922 493.1L400.806 490.502C400.003 493.585 399.284 496.702 398.653 499.85L408.9 501.874C409.493 498.919 410.167 495.994 410.922 493.1ZM407.383 510.748L397.036 509.302C396.59 512.451 396.23 515.627 395.96 518.828L406.372 519.694C406.626 516.688 406.964 513.705 407.383 510.748ZM428.323 614.711L419.342 620.013C420.989 622.763 422.713 625.463 424.509 628.111L433.176 622.317C431.488 619.83 429.87 617.294 428.323 614.711ZM438.451 629.641L430.125 635.908C432.071 638.455 434.088 640.947 436.172 643.38L444.132 636.661C442.174 634.375 440.279 632.034 438.451 629.641ZM450.198 643.355L442.628 650.504C444.846 652.818 447.129 655.071 449.474 657.259L456.631 649.703C454.427 647.646 452.282 645.529 450.198 643.355ZM463.41 655.685L456.688 663.625C459.151 665.679 461.672 667.666 464.25 669.583L470.515 661.283C468.093 659.482 465.724 657.615 463.41 655.685ZM477.923 666.479L472.134 675.113C474.809 676.881 477.538 678.576 480.317 680.197L485.611 671.255C483 669.732 480.437 668.139 477.923 666.479ZM493.556 675.597L488.775 684.82C491.631 686.279 494.535 687.661 497.482 688.965L501.734 679.491C498.966 678.267 496.239 676.968 493.556 675.597ZM510.12 682.922L506.411 692.619C509.413 693.75 512.456 694.801 515.535 695.769L518.689 685.881C515.797 684.972 512.94 683.985 510.12 682.922ZM527.412 688.356L524.824 698.405C527.93 699.193 531.07 699.898 534.241 700.517L536.257 690.34C533.279 689.759 530.33 689.097 527.412 688.356ZM650.019 671.255L655.313 680.197C658.092 678.576 660.82 676.881 663.496 675.113L657.707 666.479C655.193 668.139 652.63 669.732 650.019 671.255ZM665.115 661.283L671.38 669.583C673.958 667.666 676.479 665.679 678.942 663.625L672.22 655.685C669.906 657.615 667.537 659.482 665.115 661.283ZM678.999 649.703L686.156 657.259C688.501 655.071 690.784 652.818 693.002 650.504L685.432 643.355C683.348 645.529 681.203 647.646 678.999 649.703ZM691.498 636.661L699.458 643.38C701.542 640.947 703.559 638.455 705.504 635.908L697.179 629.641C695.35 632.034 693.456 634.375 691.498 636.661ZM702.454 622.317L711.121 628.111C712.917 625.463 714.641 622.763 716.288 620.013L707.307 614.711C705.76 617.294 704.142 619.83 702.454 622.317ZM711.722 606.847L720.989 611.637C722.474 608.807 723.881 605.93 725.207 603.01L715.682 598.747C714.437 601.489 713.116 604.189 711.722 606.847Z" fill="#1A0D46"/>
<g opacity="0.5" filter="url(#filter0_d_411_1463)">
<path fill-rule="evenodd" clip-rule="evenodd" d="M756.363 495.727L763.653 494.137C763.094 491.613 762.486 489.106 761.83 486.619L754.61 488.495C755.241 490.888 755.825 493.299 756.363 495.727ZM752.566 481.332L759.705 479.172C758.946 476.698 758.138 474.246 757.284 471.814L750.237 474.254C751.059 476.593 751.836 478.953 752.566 481.332ZM747.627 467.277L754.571 464.561C753.617 462.157 752.616 459.777 751.571 457.421L744.741 460.409C745.747 462.675 746.709 464.965 747.627 467.277ZM741.583 453.66L748.288 450.407C747.145 448.087 745.958 445.792 744.727 443.525L738.157 447.039C739.341 449.221 740.484 451.428 741.583 453.66ZM734.47 440.556L740.896 436.787C739.573 434.565 738.207 432.372 736.8 430.207L730.529 434.224C731.883 436.307 733.197 438.418 734.47 440.556ZM726.341 428.051L732.448 423.792C730.955 421.682 729.42 419.601 727.846 417.553L721.912 422.045C723.427 424.017 724.903 426.019 726.341 428.051ZM717.249 416.217L723.002 411.497C721.347 409.509 719.653 407.555 717.922 405.634L712.36 410.573C714.026 412.422 715.656 414.304 717.249 416.217ZM707.252 405.124L712.616 399.972C710.811 398.12 708.969 396.303 707.092 394.521L701.935 399.876C703.741 401.591 705.514 403.34 707.252 405.124ZM696.415 394.839L701.358 389.288C699.413 387.581 697.434 385.912 695.422 384.281L690.7 390.018C692.637 391.589 694.542 393.196 696.415 394.839ZM684.802 385.424L689.293 379.507C687.221 377.957 685.117 376.446 682.983 374.975L678.727 381.061C680.782 382.477 682.807 383.931 684.802 385.424ZM672.485 376.938L676.498 370.691C674.31 369.306 672.094 367.963 669.849 366.662L666.085 373.06C668.246 374.312 670.38 375.605 672.485 376.938ZM659.536 369.433L663.044 362.893C660.754 361.683 658.437 360.516 656.095 359.393L652.848 366.064C655.103 367.145 657.332 368.268 659.536 369.433ZM646.036 362.96L649.016 356.167C646.639 355.14 644.238 354.157 641.813 353.22L639.105 360.123C641.438 361.025 643.749 361.971 646.036 362.96ZM632.066 357.56L634.498 350.556C632.047 349.717 629.574 348.925 627.08 348.179L624.928 355.273C627.328 355.99 629.707 356.753 632.066 357.56ZM617.704 353.266L619.573 346.094C617.067 345.45 614.542 344.854 611.998 344.306L610.414 351.546C612.862 352.073 615.292 352.647 617.704 353.266ZM603.06 350.11L604.356 342.814C601.806 342.367 599.24 341.969 596.658 341.62L595.651 348.96C598.136 349.297 600.606 349.68 603.06 350.11ZM588.197 348.099L588.916 340.725C586.342 340.478 583.754 340.279 581.153 340.13L580.723 347.526C583.228 347.67 585.719 347.861 588.197 348.099ZM573.237 347.24L573.38 339.833C572.081 339.809 570.779 339.796 569.475 339.796C568.17 339.796 566.868 339.809 565.569 339.833L565.712 347.24C566.963 347.217 568.218 347.205 569.475 347.205C570.732 347.205 571.986 347.217 573.237 347.24ZM558.226 347.526L557.796 340.13C555.195 340.279 552.607 340.478 550.033 340.725L550.752 348.099C553.23 347.861 555.721 347.67 558.226 347.526ZM472.864 373.06L469.1 366.662C466.855 367.963 464.639 369.307 462.451 370.691L466.464 376.938C468.569 375.605 470.703 374.312 472.864 373.06ZM460.222 381.061L455.966 374.975C453.832 376.446 451.728 377.957 449.656 379.507L454.147 385.424C456.142 383.931 458.167 382.477 460.222 381.061ZM448.249 390.018L443.527 384.281C441.515 385.912 439.536 387.581 437.591 389.288L442.534 394.839C444.407 393.196 446.312 391.589 448.249 390.018ZM437.014 399.876L431.857 394.521C429.98 396.303 428.138 398.12 426.333 399.972L431.697 405.124C433.435 403.34 435.208 401.591 437.014 399.876ZM426.589 410.573L421.027 405.634C419.296 407.555 417.602 409.509 415.947 411.497L421.7 416.217C423.293 414.304 424.923 412.422 426.589 410.573ZM417.037 422.045L411.103 417.553C409.529 419.601 407.994 421.682 406.501 423.792L412.608 428.051C414.046 426.019 415.522 424.017 417.037 422.045ZM408.42 434.224L402.149 430.207C400.742 432.372 399.376 434.566 398.053 436.787L404.479 440.556C405.752 438.418 407.066 436.307 408.42 434.224ZM400.792 447.039L394.222 443.525C392.991 445.792 391.804 448.087 390.661 450.407L397.366 453.66C398.465 451.428 399.608 449.221 400.792 447.039ZM394.208 460.409L387.378 457.421C386.333 459.777 385.332 462.157 384.378 464.561L391.322 467.277C392.24 464.965 393.202 462.675 394.208 460.409ZM388.712 474.255L381.665 471.814C380.811 474.246 380.003 476.698 379.244 479.172L386.383 481.332C387.113 478.953 387.89 476.593 388.712 474.255ZM384.339 488.495L377.119 486.619C376.463 489.106 375.855 491.613 375.296 494.137L382.586 495.727C383.124 493.299 383.708 490.888 384.339 488.495ZM381.123 503.025L373.775 501.723C373.32 504.254 372.914 506.802 372.558 509.365L379.951 510.377C380.294 507.911 380.685 505.46 381.123 503.025ZM379.073 517.775L371.645 517.053C371.393 519.609 371.191 522.178 371.039 524.761L378.489 525.193C378.636 522.707 378.831 520.234 379.073 517.775ZM397.366 619.057L390.661 622.311C391.804 624.631 392.991 626.925 394.222 629.193L400.792 625.679C399.608 623.497 398.465 621.289 397.366 619.057ZM404.479 632.161L398.054 635.93C399.376 638.152 400.742 640.346 402.149 642.511L408.42 638.494C407.066 636.411 405.752 634.299 404.479 632.161ZM412.608 644.667L406.501 648.925C407.994 651.036 409.529 653.116 411.103 655.165L417.037 650.672C415.522 648.7 414.046 646.698 412.608 644.667ZM421.7 656.501L415.947 661.221C417.602 663.208 419.296 665.163 421.027 667.084L426.589 662.145C424.923 660.296 423.293 658.414 421.7 656.501ZM431.697 667.594L426.333 672.745C428.138 674.598 429.98 676.415 431.857 678.196L437.014 672.841C435.208 671.127 433.435 669.377 431.697 667.594ZM442.534 677.879L437.591 683.429C439.536 685.136 441.515 686.806 443.528 688.437L448.249 682.699C446.312 681.129 444.407 679.522 442.534 677.879ZM454.147 687.294L449.656 693.21C451.728 694.761 453.832 696.272 455.966 697.742L460.222 691.656C458.167 690.241 456.142 688.786 454.147 687.294ZM466.464 695.78L462.451 702.026C464.639 703.411 466.855 704.755 469.1 706.056L472.864 699.658C470.703 698.406 468.569 697.113 466.464 695.78ZM479.413 703.285L475.905 709.824C478.195 711.034 480.512 712.202 482.854 713.325L486.101 706.654C483.846 705.573 481.617 704.45 479.413 703.285ZM492.913 709.758L489.933 716.55C492.31 717.578 494.711 718.561 497.136 719.498L499.844 712.594C497.511 711.692 495.2 710.747 492.913 709.758ZM506.883 715.158L504.451 722.162C506.902 723 509.375 723.793 511.869 724.539L514.021 717.445C511.622 716.727 509.242 715.965 506.883 715.158ZM521.245 719.451L519.376 726.624C521.882 727.267 524.407 727.864 526.951 728.412L528.535 721.172C526.087 720.644 523.657 720.07 521.245 719.451ZM535.889 722.608L534.593 729.904C537.143 730.35 539.709 730.748 542.291 731.098L543.298 723.757C540.813 723.421 538.343 723.038 535.889 722.608ZM652.848 706.654L656.095 713.325C658.437 712.202 660.754 711.034 663.044 709.824L659.536 703.285C657.332 704.45 655.103 705.573 652.848 706.654ZM666.085 699.658L669.849 706.056C672.094 704.755 674.311 703.411 676.498 702.026L672.485 695.78C670.38 697.113 668.246 698.406 666.085 699.658ZM678.727 691.656L682.983 697.742C685.117 696.272 687.221 694.761 689.294 693.21L684.802 687.294C682.807 688.786 680.782 690.241 678.727 691.656ZM690.7 682.699L695.422 688.437C697.434 686.806 699.413 685.136 701.358 683.429L696.415 677.879C694.542 679.522 692.637 681.129 690.7 682.699ZM701.935 672.841L707.092 678.196C708.969 676.415 710.811 674.598 712.616 672.745L707.252 667.594C705.514 669.377 703.741 671.127 701.935 672.841ZM712.36 662.145L717.922 667.084C719.653 665.163 721.347 663.208 723.002 661.221L717.249 656.501C715.656 658.414 714.026 660.296 712.36 662.145ZM721.912 650.672L727.846 655.165C729.42 653.116 730.955 651.036 732.448 648.925L726.341 644.667C724.903 646.698 723.427 648.7 721.912 650.672ZM730.529 638.494L736.8 642.511C738.207 640.346 739.573 638.152 740.896 635.93L734.47 632.161C733.197 634.299 731.883 636.411 730.529 638.494ZM738.157 625.679L744.727 629.193C745.958 626.925 747.145 624.631 748.288 622.311L741.583 619.057C740.484 621.289 739.341 623.497 738.157 625.679ZM744.741 612.309L751.571 615.296C752.616 612.94 753.617 610.56 754.571 608.157L747.627 605.441C746.709 607.753 745.747 610.042 744.741 612.309ZM750.237 598.463L757.284 600.903C758.138 598.472 758.946 596.019 759.705 593.546L752.566 591.386C751.836 593.765 751.059 596.124 750.237 598.463Z" fill="#1A0D46"/>
</g>
<g opacity="0.5" filter="url(#filter1_d_411_1463)">
<path fill-rule="evenodd" clip-rule="evenodd" d="M777.045 488.732L782.884 487.495C782.441 485.433 781.968 483.381 781.467 481.341L775.666 482.747C776.154 484.731 776.614 486.726 777.045 488.732ZM770.727 465.803L776.388 463.917C775.713 461.921 775.01 459.939 774.279 457.97L768.677 460.019C769.388 461.934 770.071 463.862 770.727 465.803ZM761.834 443.737L767.243 441.227C766.345 439.319 765.419 437.427 764.467 435.55L759.135 438.216C760.06 440.041 760.96 441.882 761.834 443.737ZM750.487 422.809L755.577 419.71C754.468 417.916 753.334 416.139 752.175 414.379L747.178 417.623C748.306 419.335 749.409 421.063 750.487 422.809ZM736.843 403.275L741.551 399.63C740.249 397.972 738.922 396.333 737.572 394.713L732.972 398.491C734.285 400.067 735.575 401.661 736.843 403.275ZM721.087 385.377L725.357 381.234C723.877 379.731 722.374 378.248 720.851 376.788L716.703 381.05C718.185 382.472 719.647 383.914 721.087 385.377ZM703.422 369.331L707.201 364.742C705.562 363.412 703.903 362.105 702.225 360.821L698.58 365.516C700.213 366.765 701.827 368.037 703.422 369.331ZM684.068 355.337L687.309 350.359C685.53 349.219 683.733 348.102 681.92 347.011L678.825 352.08C680.59 353.141 682.338 354.227 684.068 355.337ZM663.261 343.574L665.921 338.268C664.026 337.332 662.116 336.423 660.191 335.54L657.687 340.921C659.56 341.779 661.418 342.664 663.261 343.574ZM641.254 334.197L643.298 328.628C641.312 327.91 639.313 327.22 637.301 326.557L635.421 332.183C637.378 332.827 639.323 333.498 641.254 334.197ZM618.336 327.334L619.737 321.572C617.68 321.08 615.613 320.616 613.534 320.181L612.303 325.98C614.324 326.403 616.336 326.855 618.336 327.334ZM594.785 323.063L595.528 317.183C593.429 316.921 591.321 316.689 589.205 316.487L588.632 322.387C590.692 322.583 592.743 322.809 594.785 323.063ZM570.896 321.418L570.981 315.491C569.92 315.477 568.857 315.469 567.793 315.469C566.728 315.469 565.665 315.477 564.604 315.491L564.689 321.418C565.722 321.403 566.756 321.396 567.793 321.396C568.829 321.396 569.864 321.403 570.896 321.418ZM546.953 322.387L546.381 316.487C544.264 316.689 542.156 316.921 540.058 317.183L540.8 323.063C542.842 322.809 544.893 322.583 546.953 322.387ZM477.898 340.921L475.394 335.54C473.469 336.423 471.559 337.332 469.664 338.268L472.324 343.574C474.167 342.664 476.025 341.779 477.898 340.921ZM456.76 352.08L453.665 347.011C451.852 348.102 450.055 349.218 448.277 350.359L451.517 355.337C453.248 354.227 454.995 353.141 456.76 352.08ZM437.005 365.516L433.361 360.821C431.682 362.105 430.024 363.412 428.385 364.742L432.164 369.331C433.758 368.037 435.372 366.765 437.005 365.516ZM418.882 381.05L414.734 376.787C413.211 378.248 411.708 379.731 410.228 381.234L414.498 385.377C415.938 383.914 417.4 382.472 418.882 381.05ZM402.613 398.491L398.013 394.713C396.663 396.333 395.337 397.972 394.034 399.63L398.742 403.275C400.01 401.661 401.3 400.067 402.613 398.491ZM388.407 417.623L383.41 414.379C382.251 416.139 381.117 417.916 380.008 419.71L385.098 422.809C386.176 421.063 387.279 419.335 388.407 417.623ZM376.451 438.216L371.118 435.55C370.166 437.427 369.24 439.319 368.342 441.227L373.751 443.737C374.625 441.882 375.525 440.041 376.451 438.216ZM366.909 460.02L361.306 457.97C360.575 459.939 359.872 461.921 359.197 463.917L364.858 465.803C365.514 463.862 366.198 461.934 366.909 460.02ZM359.919 482.747L354.119 481.341C353.617 483.381 353.144 485.433 352.701 487.495L358.54 488.732C358.971 486.726 359.431 484.731 359.919 482.747ZM355.567 506.115L349.644 505.369C349.377 507.453 349.141 509.546 348.935 511.647L354.877 512.222C355.078 510.178 355.308 508.142 355.567 506.115ZM353.889 529.826C353.875 530.851 353.867 531.879 353.867 532.907C353.867 533.936 353.875 534.963 353.889 535.988L347.919 536.073C347.904 535.02 347.896 533.964 347.896 532.907C347.896 531.85 347.904 530.795 347.919 529.741L353.889 529.826ZM373.751 622.078L368.342 624.588C369.24 626.495 370.166 628.387 371.118 630.264L376.451 627.599C375.525 625.773 374.625 623.933 373.751 622.078ZM385.098 643.006L380.008 646.104C381.117 647.898 382.251 649.676 383.41 651.435L388.407 648.192C387.279 646.48 386.176 644.751 385.098 643.006ZM398.742 662.54L394.034 666.184C395.337 667.843 396.663 669.482 398.013 671.101L402.613 667.323C401.3 665.748 400.01 664.153 398.742 662.54ZM414.498 680.438L410.228 684.58C411.708 686.084 413.211 687.566 414.734 689.027L418.882 684.764C417.4 683.343 415.938 681.9 414.498 680.438ZM432.164 696.484L428.385 701.072C430.024 702.402 431.682 703.71 433.361 704.993L437.005 700.299C435.372 699.05 433.758 697.778 432.164 696.484ZM451.517 710.477L448.276 715.455C450.055 716.596 451.852 717.712 453.665 718.803L456.76 713.734C454.995 712.673 453.248 711.587 451.517 710.477ZM472.324 722.24L469.664 727.547C471.559 728.482 473.469 729.392 475.394 730.274L477.898 724.894C476.025 724.035 474.167 723.15 472.324 722.24ZM494.331 731.618L492.288 737.187C494.273 737.905 496.272 738.595 498.284 739.257L500.164 733.632C498.207 732.987 496.262 732.316 494.331 731.618ZM517.249 738.481L515.849 744.242C517.905 744.735 519.973 745.199 522.051 745.633L523.282 739.834C521.261 739.411 519.249 738.96 517.249 738.481ZM540.8 742.751L540.058 748.632C542.156 748.893 544.264 749.125 546.381 749.327L546.953 743.428C544.893 743.231 542.842 743.005 540.8 742.751ZM657.687 724.894L660.191 730.274C662.116 729.392 664.026 728.482 665.921 727.547L663.261 722.24C661.418 723.15 659.56 724.035 657.687 724.894ZM678.825 713.734L681.92 718.803C683.733 717.712 685.53 716.596 687.309 715.455L684.068 710.477C682.338 711.587 680.59 712.673 678.825 713.734ZM698.58 700.299L702.225 704.993C703.903 703.71 705.562 702.402 707.201 701.072L703.422 696.484C701.827 697.778 700.213 699.05 698.58 700.299ZM716.703 684.764L720.851 689.027C722.374 687.566 723.877 686.084 725.357 684.58L721.087 680.438C719.647 681.9 718.185 683.343 716.703 684.764ZM732.972 667.323L737.572 671.101C738.922 669.482 740.249 667.843 741.551 666.184L736.843 662.54C735.575 664.153 734.285 665.748 732.972 667.323ZM747.178 648.192L752.175 651.435C753.334 649.676 754.468 647.898 755.577 646.104L750.487 643.006C749.409 644.751 748.306 646.48 747.178 648.192ZM759.135 627.599L764.467 630.264C765.419 628.387 766.345 626.495 767.243 624.588L761.834 622.078C760.96 623.933 760.06 625.773 759.135 627.599ZM768.677 605.795L774.279 607.844C775.01 605.875 775.713 603.893 776.388 601.898L770.727 600.012C770.071 601.952 769.388 603.88 768.677 605.795Z" fill="#1A0D46"/>
</g>
<g opacity="0.5" filter="url(#filter2_f_411_1463)">
<path fill-rule="evenodd" clip-rule="evenodd" d="M801.04 467.064L804.624 466.03C804.048 464.066 803.448 462.113 802.824 460.17L799.269 461.295C799.883 463.208 800.474 465.131 801.04 467.064ZM793.348 444.967L796.81 443.585C796.041 441.688 795.249 439.803 794.433 437.93L791.008 439.4C791.811 441.244 792.591 443.1 793.348 444.967ZM783.487 423.736L786.794 422.02C785.84 420.208 784.864 418.41 783.865 416.625L780.603 418.423C781.586 420.181 782.548 421.951 783.487 423.736ZM771.563 403.573L774.685 401.543C773.556 399.833 772.406 398.138 771.236 396.459L768.167 398.567C769.32 400.22 770.452 401.889 771.563 403.573ZM757.704 384.668L760.61 382.345C759.319 380.753 758.008 379.178 756.677 377.62L753.831 380.016C755.141 381.55 756.433 383.101 757.704 384.668ZM742.051 367.198L744.714 364.604C743.273 363.146 741.813 361.705 740.336 360.283L737.738 362.943C739.194 364.343 740.631 365.762 742.051 367.198ZM724.756 351.325L727.153 348.486C725.576 347.174 723.982 345.882 722.371 344.609L720.047 347.507C721.633 348.761 723.203 350.033 724.756 351.325ZM705.986 337.2L708.092 334.143C706.394 332.99 704.681 331.858 702.953 330.747L700.925 333.857C702.627 334.951 704.314 336.065 705.986 337.2ZM685.916 324.961L687.711 321.714C685.909 320.732 684.093 319.772 682.263 318.834L680.551 322.126C682.353 323.049 684.141 323.994 685.916 324.961ZM664.735 314.732L666.201 311.325C664.312 310.524 662.41 309.746 660.496 308.991L659.117 312.433C661.002 313.176 662.875 313.943 664.735 314.732ZM642.646 306.616L643.767 303.083C641.808 302.471 639.839 301.882 637.859 301.317L636.829 304.877C638.778 305.433 640.717 306.013 642.646 306.616ZM619.86 300.696L620.626 297.071C618.618 296.652 616.6 296.258 614.574 295.889L613.9 299.532C615.895 299.896 617.882 300.284 619.86 300.696ZM596.601 297.021L597.007 293.339C594.967 293.117 592.921 292.92 590.867 292.749L590.554 296.44C592.577 296.609 594.593 296.803 596.601 297.021ZM573.094 295.606L573.14 291.902C572.108 291.889 571.075 291.883 570.04 291.883C569.006 291.883 567.972 291.889 566.941 291.902L566.987 295.606C568.003 295.593 569.021 295.587 570.04 295.587C571.06 295.587 572.078 295.593 573.094 295.606ZM459.53 322.126L457.818 318.834C455.988 319.772 454.172 320.732 452.37 321.714L454.165 324.961C455.94 323.994 457.728 323.049 459.53 322.126ZM439.156 333.857L437.128 330.747C435.4 331.858 433.686 332.99 431.989 334.143L434.095 337.2C435.767 336.065 437.454 334.951 439.156 333.857ZM420.034 347.507L417.71 344.609C416.099 345.882 414.505 347.174 412.928 348.486L415.325 351.325C416.878 350.033 418.448 348.761 420.034 347.507ZM402.343 362.943L399.745 360.283C398.267 361.705 396.808 363.146 395.366 364.604L398.03 367.198C399.45 365.762 400.887 364.343 402.343 362.943ZM386.25 380.016L383.404 377.62C382.073 379.178 380.762 380.753 379.47 382.345L382.377 384.668C383.648 383.101 384.94 381.55 386.25 380.016ZM371.914 398.567L368.845 396.459C367.674 398.138 366.525 399.833 365.396 401.543L368.517 403.573C369.629 401.889 370.761 400.22 371.914 398.567ZM359.478 418.423L356.215 416.625C355.217 418.41 354.241 420.208 353.287 422.02L356.594 423.736C357.533 421.951 358.495 420.181 359.478 418.423ZM349.073 439.4L345.648 437.93C344.832 439.803 344.04 441.688 343.271 443.585L346.733 444.967C347.49 443.1 348.27 441.244 349.073 439.4ZM340.812 461.295L337.256 460.17C336.632 462.113 336.033 464.066 335.457 466.03L339.04 467.064C339.607 465.131 340.197 463.208 340.812 461.295ZM334.781 483.896L331.13 483.126C330.704 485.12 330.302 487.122 329.926 489.133L333.595 489.81C333.965 487.83 334.361 485.858 334.781 483.896ZM331.035 506.977L327.326 506.569C327.1 508.593 326.9 510.625 326.725 512.664L330.443 512.979C330.615 510.971 330.813 508.97 331.035 506.977ZM368.517 663.109L365.396 665.139C366.525 666.848 367.674 668.543 368.845 670.222L371.914 668.114C370.761 666.461 369.629 664.792 368.517 663.109ZM382.377 682.013L379.47 684.337C380.762 685.928 382.073 687.503 383.404 689.061L386.25 686.665C384.94 685.131 383.648 683.58 382.377 682.013ZM398.03 699.483L395.366 702.077C396.808 703.536 398.267 704.976 399.745 706.398L402.343 703.738C400.887 702.338 399.45 700.919 398.03 699.483ZM415.325 715.356L412.928 718.195C414.505 719.507 416.099 720.8 417.71 722.072L420.034 719.174C418.448 717.921 416.878 716.648 415.325 715.356ZM434.095 729.481L431.989 732.539C433.686 733.691 435.4 734.823 437.128 735.934L439.156 732.825C437.454 731.731 435.767 730.616 434.095 729.481ZM454.165 741.72L452.37 744.967C454.172 745.949 455.988 746.909 457.818 747.847L459.53 744.556C457.728 743.632 455.94 742.687 454.165 741.72ZM475.345 751.95L473.88 755.356C475.769 756.157 477.671 756.936 479.585 757.691L480.963 754.248C479.079 753.505 477.206 752.739 475.345 751.95ZM497.435 760.065L496.314 763.598C498.273 764.211 500.242 764.799 502.221 765.364L503.252 761.804C501.303 761.248 499.364 760.668 497.435 760.065ZM520.221 765.985L519.455 769.611C521.463 770.029 523.481 770.423 525.507 770.792L526.181 767.149C524.186 766.785 522.199 766.397 520.221 765.985ZM680.551 744.556L682.263 747.847C684.093 746.909 685.909 745.949 687.711 744.967L685.916 741.72C684.141 742.687 682.353 743.632 680.551 744.556ZM700.925 732.825L702.953 735.934C704.681 734.823 706.394 733.691 708.092 732.539L705.986 729.481C704.314 730.616 702.627 731.731 700.925 732.825ZM720.047 719.174L722.371 722.072C723.982 720.8 725.576 719.507 727.153 718.195L724.756 715.356C723.203 716.648 721.633 717.921 720.047 719.174ZM737.738 703.739L740.335 706.398C741.813 704.976 743.273 703.536 744.714 702.077L742.05 699.483C740.631 700.919 739.194 702.338 737.738 703.739ZM753.831 686.665L756.677 689.061C758.008 687.503 759.319 685.928 760.61 684.337L757.704 682.013C756.432 683.58 755.141 685.131 753.831 686.665ZM768.167 668.115L771.236 670.222C772.406 668.543 773.556 666.849 774.685 665.139L771.563 663.109C770.452 664.792 769.32 666.461 768.167 668.115ZM780.603 648.258L783.865 650.056C784.864 648.272 785.84 646.473 786.794 644.661L783.487 642.946C782.547 644.73 781.586 646.501 780.603 648.258ZM791.008 627.282L794.433 628.751C795.249 626.879 796.041 624.993 796.81 623.096L793.348 621.714C792.591 623.582 791.811 625.438 791.008 627.282Z" fill="#1A0D46"/>
</g>
<g opacity="0.5" filter="url(#filter3_f_411_1463)">
<path fill-rule="evenodd" clip-rule="evenodd" d="M823.085 456.088L826.658 455.021C826.231 453.611 825.792 452.205 825.341 450.804L821.786 451.931C822.23 453.312 822.663 454.697 823.085 456.088ZM816.687 437.552L820.169 436.219C819.635 434.844 819.09 433.475 818.534 432.111L815.075 433.501C815.623 434.846 816.161 436.196 816.687 437.552ZM808.898 419.551L812.269 417.962C811.632 416.631 810.984 415.306 810.326 413.987L806.982 415.633C807.631 416.933 808.27 418.239 808.898 419.551ZM799.762 402.181L803.003 400.344C802.267 399.065 801.521 397.793 800.765 396.527L797.556 398.417C798.302 399.665 799.037 400.92 799.762 402.181ZM789.341 385.543L792.434 383.471C791.604 382.25 790.764 381.036 789.913 379.83L786.855 381.953C787.694 383.142 788.522 384.339 789.341 385.543ZM777.693 369.723L780.622 367.427C779.703 366.272 778.774 365.124 777.836 363.984L774.946 366.328C775.871 367.452 776.787 368.583 777.693 369.723ZM764.892 354.809L767.64 352.304C766.637 351.219 765.625 350.143 764.604 349.076L761.897 351.626C762.904 352.679 763.903 353.74 764.892 354.809ZM751.009 340.881L753.562 338.18C752.48 337.173 751.39 336.174 750.292 335.184L747.784 337.927C748.867 338.903 749.942 339.888 751.009 340.881ZM736.122 328.015L738.466 325.133C737.312 324.209 736.151 323.293 734.982 322.388L732.686 325.308C733.839 326.201 734.984 327.104 736.122 328.015ZM720.313 316.283L722.435 313.235C721.215 312.398 719.988 311.571 718.753 310.754L716.682 313.835C717.9 314.641 719.11 315.457 720.313 316.283ZM703.669 305.75L705.557 302.555C704.278 301.811 702.992 301.077 701.7 300.353L699.867 303.579C701.141 304.293 702.408 305.017 703.669 305.75ZM686.279 296.479L687.921 293.152C686.59 292.505 685.252 291.868 683.909 291.242L682.323 294.595C683.648 295.213 684.967 295.84 686.279 296.479ZM668.243 288.525L669.629 285.086C668.253 284.539 666.871 284.004 665.484 283.479L664.155 286.941C665.523 287.458 666.886 287.986 668.243 288.525ZM649.651 281.933L650.773 278.4C649.361 277.958 647.944 277.527 646.522 277.107L645.459 280.658C646.861 281.072 648.258 281.497 649.651 281.933ZM630.623 276.745L631.476 273.139C630.033 272.802 628.586 272.478 627.134 272.165L626.342 275.784C627.773 276.093 629.201 276.413 630.623 276.745ZM611.245 272.982L611.824 269.323C610.362 269.095 608.897 268.879 607.429 268.675L606.911 272.343C608.359 272.545 609.804 272.758 611.245 272.982ZM591.655 270.664L591.959 266.973C590.483 266.853 589.003 266.745 587.52 266.649L587.277 270.345C588.74 270.44 590.199 270.546 591.655 270.664ZM571.929 269.787L571.96 266.083C571.216 266.077 570.471 266.074 569.725 266.074C568.979 266.074 568.235 266.077 567.49 266.083L567.521 269.787C568.255 269.781 568.99 269.778 569.725 269.778C570.461 269.778 571.195 269.781 571.929 269.787ZM439.584 303.579L437.75 300.353C436.458 301.077 435.172 301.811 433.893 302.555L435.781 305.75C437.042 305.016 438.309 304.293 439.584 303.579ZM422.768 313.835L420.697 310.754C419.462 311.571 418.235 312.398 417.015 313.235L419.137 316.283C420.34 315.457 421.55 314.641 422.768 313.835ZM406.764 325.308L404.469 322.388C403.299 323.293 402.138 324.209 400.984 325.133L403.329 328.015C404.466 327.104 405.611 326.201 406.764 325.308ZM391.666 337.927L389.158 335.184C388.06 336.174 386.97 337.173 385.888 338.18L388.441 340.881C389.508 339.888 390.583 338.903 391.666 337.927ZM377.553 351.626L374.846 349.076C373.825 350.143 372.813 351.219 371.81 352.304L374.558 354.809C375.547 353.74 376.546 352.679 377.553 351.626ZM364.504 366.328L361.614 363.984C360.676 365.124 359.747 366.272 358.828 367.427L361.757 369.723C362.663 368.583 363.579 367.452 364.504 366.328ZM352.595 381.953L349.537 379.83C348.687 381.036 347.846 382.25 347.016 383.471L350.109 385.543C350.928 384.339 351.756 383.142 352.595 381.953ZM341.894 398.417L338.685 396.527C337.929 397.793 337.183 399.065 336.447 400.344L339.688 402.181C340.413 400.92 341.149 399.665 341.894 398.417ZM332.468 415.633L329.124 413.987C328.466 415.306 327.818 416.631 327.181 417.962L330.552 419.551C331.18 418.239 331.819 416.933 332.468 415.633ZM324.375 433.501L320.916 432.111C320.36 433.475 319.815 434.844 319.281 436.219L322.763 437.552C323.289 436.196 323.827 434.846 324.375 433.501ZM317.664 451.931L314.109 450.804C313.658 452.205 313.219 453.611 312.792 455.021L316.366 456.088C316.787 454.697 317.22 453.312 317.664 451.931ZM312.379 470.803L308.749 469.946C308.406 471.378 308.075 472.814 307.756 474.254L311.401 475.05C311.715 473.63 312.041 472.214 312.379 470.803ZM308.545 490.03L304.86 489.448C304.627 490.898 304.407 492.353 304.199 493.811L307.893 494.331C308.099 492.894 308.316 491.46 308.545 490.03ZM306.182 509.472L302.464 509.167C302.341 510.632 302.231 512.101 302.133 513.573L305.857 513.817C305.953 512.366 306.062 510.917 306.182 509.472ZM330.552 642.929L327.181 644.519C327.818 645.85 328.466 647.174 329.124 648.493L332.468 646.848C331.819 645.548 331.18 644.242 330.552 642.929ZM339.688 660.3L336.447 662.136C337.183 663.415 337.929 664.688 338.685 665.953L341.894 664.063C341.149 662.815 340.413 661.561 339.688 660.3ZM350.109 676.937L347.016 679.009C347.846 680.23 348.687 681.444 349.537 682.651L352.595 680.528C351.756 679.338 350.928 678.141 350.109 676.937ZM361.757 692.758L358.828 695.053C359.747 696.209 360.676 697.356 361.614 698.496L364.504 696.153C363.579 695.029 362.663 693.897 361.757 692.758ZM374.558 707.671L371.81 710.177C372.813 711.261 373.825 712.337 374.846 713.405L377.553 710.854C376.546 709.801 375.547 708.74 374.558 707.671ZM388.441 721.599L385.888 724.3C386.97 725.308 388.06 726.306 389.158 727.296L391.666 724.553C390.583 723.577 389.508 722.592 388.441 721.599ZM403.329 734.465L400.984 737.347C402.138 738.272 403.299 739.187 404.469 740.093L406.764 737.172C405.611 736.279 404.466 735.377 403.329 734.465ZM419.137 746.198L417.015 749.245C418.235 750.082 419.462 750.909 420.697 751.727L422.768 748.645C421.55 747.839 420.34 747.023 419.137 746.198ZM435.781 756.73L433.893 759.926C435.172 760.67 436.458 761.404 437.75 762.127L439.584 758.901C438.309 758.188 437.042 757.464 435.781 756.73ZM453.171 766.002L451.529 769.328C452.86 769.976 454.198 770.612 455.541 771.238L457.127 767.885C455.802 767.268 454.484 766.64 453.171 766.002ZM471.207 773.955L469.821 777.395C471.197 777.941 472.579 778.477 473.966 779.001L475.295 775.54C473.927 775.022 472.564 774.494 471.207 773.955ZM489.8 780.548L488.677 784.08C490.089 784.523 491.506 784.953 492.928 785.373L493.991 781.822C492.589 781.409 491.192 780.984 489.8 780.548ZM508.827 785.735L507.974 789.342C509.417 789.678 510.864 790.003 512.316 790.316L513.108 786.696C511.677 786.387 510.25 786.067 508.827 785.735ZM528.206 789.498L527.627 793.157C529.088 793.385 530.553 793.601 532.021 793.806L532.539 790.137C531.091 789.936 529.646 789.723 528.206 789.498ZM682.323 767.885L683.909 771.238C685.252 770.612 686.59 769.976 687.921 769.328L686.279 766.002C684.967 766.64 683.648 767.268 682.323 767.885ZM699.866 758.901L701.7 762.127C702.992 761.404 704.278 760.67 705.557 759.926L703.669 756.73C702.408 757.464 701.141 758.188 699.866 758.901ZM716.682 748.645L718.753 751.727C719.988 750.909 721.215 750.082 722.435 749.245L720.313 746.198C719.11 747.023 717.9 747.839 716.682 748.645ZM732.686 737.172L734.982 740.093C736.151 739.187 737.312 738.272 738.466 737.347L736.122 734.465C734.984 735.377 733.839 736.279 732.686 737.172ZM747.784 724.553L750.292 727.296C751.39 726.306 752.48 725.308 753.562 724.3L751.009 721.599C749.942 722.592 748.867 723.577 747.784 724.553ZM761.897 710.854L764.604 713.405C765.625 712.337 766.637 711.261 767.64 710.177L764.892 707.671C763.903 708.74 762.904 709.801 761.897 710.854ZM774.946 696.153L777.836 698.496C778.774 697.356 779.703 696.209 780.622 695.053L777.693 692.758C776.787 693.897 775.871 695.029 774.946 696.153ZM786.855 680.528L789.913 682.651C790.764 681.444 791.604 680.231 792.434 679.009L789.341 676.937C788.522 678.141 787.694 679.338 786.855 680.528ZM797.556 664.063L800.765 665.953C801.521 664.688 802.267 663.415 803.003 662.136L799.762 660.3C799.037 661.561 798.302 662.815 797.556 664.063ZM806.982 646.848L810.326 648.493C810.984 647.174 811.632 645.85 812.269 644.519L808.898 642.929C808.27 644.242 807.631 645.548 806.982 646.848ZM815.075 628.979L818.534 630.37C819.09 629.006 819.635 627.636 820.169 626.261L816.687 624.929C816.161 626.284 815.623 627.635 815.075 628.979Z" fill="#1A0D46"/>
</g>
<path opacity="0.5" fill-rule="evenodd" clip-rule="evenodd" d="M956.838 463.499C955.277 457.44 953.567 451.387 951.706 445.344C949.845 439.302 947.853 433.335 945.733 427.445L993.527 410.499C995.91 417.121 998.149 423.828 1000.24 430.615C1002.33 437.403 1004.25 444.206 1006.01 451.018L956.838 463.499ZM889.115 322.642L929.751 292.462C921.168 281.075 912.08 270.15 902.53 259.71L864.957 293.575C873.433 302.841 881.498 312.537 889.115 322.642ZM772.123 218.4L798.021 175.076C785.77 167.86 773.184 161.217 760.306 155.17L738.605 200.71C750.049 206.083 761.235 211.987 772.123 218.4ZM623.908 166.35L631.181 116.492C617.122 114.471 602.915 113.101 588.605 112.406L586.123 162.723C598.821 163.34 611.429 164.556 623.908 166.35ZM466.933 174.735L454.36 125.927C447.497 127.67 440.644 129.577 433.806 131.652C426.968 133.728 420.212 135.95 413.54 138.315L430.612 185.757C436.545 183.654 442.556 181.676 448.644 179.829C454.731 177.981 460.829 176.284 466.933 174.735ZM325.032 241.96L294.629 201.623C283.157 210.142 272.151 219.164 261.634 228.643L295.75 265.94C305.085 257.526 314.853 249.52 325.032 241.96ZM220.018 358.091L176.373 332.384C169.103 344.544 162.411 357.038 156.32 369.821L202.197 391.363C207.61 380.003 213.558 368.899 220.018 358.091ZM167.582 505.215L117.355 497.997C115.319 511.952 113.939 526.054 113.239 540.259L163.929 542.723C164.551 530.118 165.775 517.603 167.582 505.215ZM176.029 661.037C177.59 667.096 179.3 673.148 181.161 679.191C183.022 685.234 185.014 691.201 187.134 697.09L139.34 714.036C136.957 707.414 134.718 700.708 132.628 693.92C130.537 687.132 128.615 680.33 126.86 673.517L176.029 661.037ZM243.752 801.894L203.116 832.073C211.699 843.461 220.787 854.386 230.337 864.826L267.91 830.961C259.434 821.694 251.368 811.998 243.752 801.894ZM360.744 906.135L334.846 949.46C347.097 956.676 359.683 963.319 372.56 969.365L394.262 923.826C382.818 918.452 371.632 912.548 360.744 906.135ZM508.958 958.186L501.686 1008.04C515.745 1010.06 529.952 1011.43 544.262 1012.13L546.744 961.812C534.046 961.195 521.438 959.98 508.958 958.186ZM665.934 949.801L678.507 998.608C685.37 996.866 692.223 994.958 699.061 992.883C705.899 990.808 712.655 988.585 719.326 986.22L702.255 938.778C696.322 940.882 690.31 942.859 684.223 944.707C678.136 946.554 672.038 948.251 665.934 949.801ZM807.835 882.576L838.238 922.913C849.71 914.393 860.716 905.372 871.233 895.893L837.117 858.595C827.782 867.01 818.014 875.016 807.835 882.576ZM912.849 766.444L956.494 792.152C963.764 779.991 970.456 767.497 976.547 754.715L930.67 733.173C925.257 744.533 919.309 755.636 912.849 766.444ZM965.285 619.32L1015.51 626.539C1017.55 612.583 1018.93 598.481 1019.63 584.276L968.938 581.813C968.316 594.417 967.092 606.932 965.285 619.32Z" fill="#684DC0" fill-opacity="0.5"/>
<path opacity="0.5" fill-rule="evenodd" clip-rule="evenodd" d="M1004.41 574.344C1004.63 568.673 1004.73 562.976 1004.73 557.253C1004.73 551.53 1004.63 545.833 1004.41 540.163L1055.12 538.26C1055.36 544.564 1055.49 550.896 1055.49 557.253C1055.49 563.611 1055.36 569.943 1055.12 576.247L1004.41 574.344ZM987.921 436.173L1036.76 422.479C1033.27 410.227 1029.33 398.169 1024.93 386.323L977.306 403.723C981.247 414.355 984.792 425.177 987.921 436.173ZM929.092 309.955L971.24 281.893C964.122 271.359 956.608 261.113 948.72 251.176L908.858 282.357C915.946 291.286 922.697 300.492 929.092 309.955ZM833.866 207.916L865.277 168.347C855.266 160.517 844.945 153.059 834.333 145.993L806.063 187.831C815.596 194.178 824.87 200.88 833.866 207.916ZM711.6 139.972L729.129 92.6943C717.196 88.3345 705.048 84.4144 692.705 80.9539L678.91 129.435C689.987 132.54 700.89 136.059 711.6 139.972ZM574.15 113.067L576.067 62.7253C569.716 62.487 563.337 62.3669 556.932 62.3669C550.528 62.3669 544.149 62.487 537.798 62.7253L539.715 113.067C545.428 112.853 551.167 112.744 556.932 112.744C562.698 112.744 568.437 112.853 574.15 113.067ZM434.955 129.435L421.16 80.9539C408.817 84.4144 396.669 88.3345 384.736 92.6943L402.265 139.972C412.975 136.059 423.878 132.54 434.955 129.435ZM307.802 187.831L279.532 145.993C268.92 153.058 258.599 160.517 248.588 168.347L279.999 207.916C288.995 200.88 298.269 194.178 307.802 187.831ZM205.007 282.356L165.145 251.176C157.257 261.113 149.743 271.359 142.625 281.893L184.773 309.955C191.168 300.492 197.919 291.286 205.007 282.356ZM136.559 403.723L88.9318 386.323C84.5397 398.169 80.5906 410.227 77.1044 422.479L125.944 436.173C129.073 425.177 132.617 414.355 136.559 403.723ZM109.455 540.163C109.239 545.833 109.131 551.53 109.131 557.253C109.131 562.976 109.239 568.673 109.455 574.344L58.7408 576.247C58.5007 569.943 58.3796 563.611 58.3796 557.253C58.3796 550.896 58.5007 544.564 58.7408 538.26L109.455 540.163ZM125.944 678.334L77.1044 692.027C80.5905 704.279 84.5397 716.338 88.9317 728.183L136.559 710.783C132.617 700.152 129.073 689.329 125.944 678.334ZM184.773 804.551L142.625 832.614C149.743 843.147 157.257 853.393 165.145 863.33L205.007 832.15C197.919 823.22 191.168 814.014 184.773 804.551ZM279.999 906.59L248.588 946.159C258.598 953.989 268.92 961.448 279.532 968.513L307.802 926.675C298.269 920.328 288.995 913.627 279.999 906.59ZM402.265 974.535L384.736 1021.81C396.669 1026.17 408.817 1030.09 421.16 1033.55L434.955 985.072C423.878 981.966 412.975 978.448 402.265 974.535ZM539.715 1001.44L537.798 1051.78C544.149 1052.02 550.528 1052.14 556.932 1052.14C563.337 1052.14 569.716 1052.02 576.067 1051.78L574.15 1001.44C568.437 1001.65 562.698 1001.76 556.932 1001.76C551.167 1001.76 545.428 1001.65 539.715 1001.44ZM678.91 985.072L692.705 1033.55C705.048 1030.09 717.196 1026.17 729.129 1021.81L711.6 974.535C700.889 978.448 689.987 981.966 678.91 985.072ZM806.063 926.675L834.333 968.513C844.945 961.448 855.266 953.989 865.277 946.159L833.866 906.59C824.87 913.627 815.596 920.328 806.063 926.675ZM908.858 832.15L948.72 863.33C956.608 853.393 964.122 843.147 971.239 832.614L929.092 804.551C922.697 814.014 915.946 823.22 908.858 832.15ZM977.306 710.783L1024.93 728.183C1029.33 716.338 1033.27 704.279 1036.76 692.027L987.921 678.334C984.792 689.329 981.247 700.152 977.306 710.783Z" fill="#684DC0" fill-opacity="0.5"/>
<path opacity="0.5" fill-rule="evenodd" clip-rule="evenodd" d="M926.652 575.439C926.929 568.119 926.992 560.746 926.833 553.326C926.675 545.905 926.297 538.541 925.708 531.24L948.026 529.465C948.651 537.2 949.05 544.998 949.218 552.855C949.386 560.711 949.32 568.519 949.026 576.273L926.652 575.439ZM918.364 482.005L940.242 477.276C936.862 461.87 932.574 446.814 927.437 432.169L906.292 439.477C911.134 453.282 915.177 467.477 918.364 482.005ZM886.615 393.698L906.562 383.602C899.374 369.61 891.366 356.126 882.603 343.213L864.033 355.631C872.292 367.801 879.84 380.51 886.615 393.698ZM833.237 316.347L849.924 301.528C839.405 289.856 828.187 278.843 816.339 268.555L801.597 285.283C812.757 294.973 823.325 305.348 833.237 316.347ZM761.654 255.19L773.915 236.593C760.742 228.035 747.014 220.277 732.8 213.384L722.973 233.355C736.341 239.837 749.256 247.136 761.654 255.19ZM676.47 214.747L683.337 193.592C668.402 188.815 653.075 184.947 637.423 182.051L633.32 203.901C648.03 206.622 662.433 210.257 676.47 214.747ZM583.508 198.305L584.435 176.099C576.596 175.776 568.701 175.696 560.757 175.863C552.813 176.03 544.928 176.443 537.11 177.095L538.984 199.242C546.337 198.629 553.755 198.241 561.231 198.083C568.708 197.926 576.136 198.002 583.508 198.305ZM489.456 206.929L484.424 185.272C468.909 188.824 453.761 193.334 439.044 198.735L446.808 219.581C460.64 214.505 474.875 210.267 489.456 206.929ZM401.141 240.129L390.47 220.59C376.563 228.075 363.179 236.404 350.383 245.508L363.427 263.572C375.47 255.004 388.062 247.168 401.141 240.129ZM324.805 295.319L309.362 279.226C297.964 290.004 287.227 301.479 277.216 313.583L294.52 327.686C303.954 316.281 314.069 305.47 324.805 295.319ZM265.43 368.231L246.347 356.606C238.143 369.876 230.717 383.685 224.134 397.966L244.494 407.214C250.699 393.753 257.698 380.738 265.43 368.231ZM226.79 453.781L205.351 447.369C200.845 462.216 197.203 477.439 194.485 492.974L216.545 496.778C219.108 482.128 222.541 467.777 226.79 453.781ZM211.31 546.278C211.033 553.597 210.971 560.97 211.129 568.391C211.288 575.811 211.665 583.175 212.254 590.476L189.936 592.252C189.311 584.517 188.912 576.718 188.744 568.862C188.576 561.006 188.642 553.197 188.936 545.443L211.31 546.278ZM219.598 639.712L197.72 644.44C201.1 659.847 205.388 674.903 210.525 689.547L231.67 682.239C226.828 668.435 222.785 654.24 219.598 639.712ZM251.347 728.019L231.4 738.115C238.588 752.107 246.596 765.591 255.359 778.504L273.929 766.086C265.67 753.916 258.122 741.207 251.347 728.019ZM304.725 805.37L288.038 820.189C298.557 831.861 309.775 842.874 321.623 853.162L336.365 836.433C325.205 826.743 314.637 816.368 304.725 805.37ZM376.308 866.527L364.047 885.124C377.22 893.681 390.948 901.44 405.162 908.332L414.989 888.362C401.621 881.88 388.706 874.581 376.308 866.527ZM461.492 906.97L454.625 928.124C469.56 932.901 484.887 936.769 500.539 939.665L504.642 917.816C489.932 915.095 475.529 911.459 461.492 906.97ZM554.454 923.411L553.527 945.618C561.366 945.94 569.262 946.021 577.205 945.854C585.149 945.687 593.034 945.273 600.852 944.622L598.978 922.474C591.625 923.087 584.207 923.476 576.731 923.633C569.254 923.791 561.827 923.715 554.454 923.411ZM648.506 914.788L653.538 936.445C669.053 932.893 684.201 928.383 698.918 922.982L691.154 902.136C677.322 907.212 663.087 911.45 648.506 914.788ZM736.821 881.588L747.492 901.126C761.399 893.642 774.783 885.313 787.579 876.209L774.535 858.144C762.492 866.713 749.9 874.549 736.821 881.588ZM813.157 826.397L828.6 842.49C839.998 831.713 850.735 820.237 860.746 808.133L843.442 794.03C834.008 805.436 823.893 816.246 813.157 826.397ZM872.532 753.486L891.616 765.111C899.819 751.841 907.245 738.032 913.828 723.75L893.468 714.502C887.263 727.964 880.265 740.979 872.532 753.486ZM911.172 667.936L932.611 674.348C937.117 659.5 940.759 644.278 943.477 628.742L921.418 624.939C918.854 639.588 915.421 653.94 911.172 667.936Z" fill="#684DC0" fill-opacity="0.5"/>
<defs>
<filter id="filter0_d_411_1463" x="367.039" y="339.796" width="400.614" height="399.302" filterUnits="userSpaceOnUse" color-interpolation-filters="sRGB">
<feFlood flood-opacity="0" result="BackgroundImageFix"/>
<feColorMatrix in="SourceAlpha" type="matrix" values="0 0 0 0 0 0 0 0 0 0 0 0 0 0 0 0 0 0 127 0" result="hardAlpha"/>
<feOffset dy="4"/>
<feGaussianBlur stdDeviation="2"/>
<feComposite in2="hardAlpha" operator="out"/>
<feColorMatrix type="matrix" values="0 0 0 0 0 0 0 0 0 0 0 0 0 0 0 0 0 0 0.25 0"/>
<feBlend mode="normal" in2="BackgroundImageFix" result="effect1_dropShadow_411_1463"/>
<feBlend mode="normal" in="SourceGraphic" in2="effect1_dropShadow_411_1463" result="shape"/>
</filter>
<filter id="filter1_d_411_1463" x="343.896" y="315.469" width="442.988" height="441.858" filterUnits="userSpaceOnUse" color-interpolation-filters="sRGB">
<feFlood flood-opacity="0" result="BackgroundImageFix"/>
<feColorMatrix in="SourceAlpha" type="matrix" values="0 0 0 0 0 0 0 0 0 0 0 0 0 0 0 0 0 0 127 0" result="hardAlpha"/>
<feOffset dy="4"/>
<feGaussianBlur stdDeviation="2"/>
<feComposite in2="hardAlpha" operator="out"/>
<feColorMatrix type="matrix" values="0 0 0 0 0 0 0 0 0 0 0 0 0 0 0 0 0 0 0.25 0"/>
<feBlend mode="normal" in2="BackgroundImageFix" result="effect1_dropShadow_411_1463"/>
<feBlend mode="normal" in="SourceGraphic" in2="effect1_dropShadow_411_1463" result="shape"/>
</filter>
<filter id="filter2_f_411_1463" x="322.725" y="287.883" width="485.899" height="486.909" filterUnits="userSpaceOnUse" color-interpolation-filters="sRGB">
<feFlood flood-opacity="0" result="BackgroundImageFix"/>
<feBlend mode="normal" in="SourceGraphic" in2="BackgroundImageFix" result="shape"/>
<feGaussianBlur stdDeviation="2" result="effect1_foregroundBlur_411_1463"/>
</filter>
<filter id="filter3_f_411_1463" x="298.133" y="262.074" width="532.525" height="535.732" filterUnits="userSpaceOnUse" color-interpolation-filters="sRGB">
<feFlood flood-opacity="0" result="BackgroundImageFix"/>
<feBlend mode="normal" in="SourceGraphic" in2="BackgroundImageFix" result="shape"/>
<feGaussianBlur stdDeviation="2" result="effect1_foregroundBlur_411_1463"/>
</filter>
</defs>
</svg>
